<svg width="338" height="92" viewBox="0 0 338 92" fill="none" xmlns="http://www.w3.org/2000/svg">
<path d="M146.236 47.8772C144.304 50.4549 141.836 51.7438 138.832 51.7438C136.417 51.7438 134.486 50.9382 132.93 49.2735C131.374 47.6087 130.623 45.5143 130.623 42.9366C130.623 40.4126 131.428 38.3719 133.037 36.7071C134.647 35.0423 136.525 34.2368 138.832 34.2368C141.139 34.2368 143.177 35.1497 144.948 36.9756L151.654 30.048C148.274 26.6648 143.875 25 138.402 25C132.984 25 128.584 26.7185 125.151 30.1554C121.717 33.5924 120 37.8349 120 42.9366C120 48.0383 121.717 52.3345 125.151 55.7715C128.584 59.2084 132.984 60.9806 138.402 60.9806C144.358 60.9806 149.133 58.9936 152.727 55.0196L146.236 47.8772Z" fill="#13366C"/>
<path d="M152.899 46.6421C152.899 50.616 154.348 53.9993 157.191 56.7381C160.035 59.4769 163.522 60.8732 167.707 60.8732C171.892 60.8732 175.433 59.4769 178.276 56.7381C181.12 53.9993 182.515 50.616 182.515 46.6421C182.515 42.6144 181.12 39.2311 178.276 36.4923C175.433 33.7535 171.892 32.3572 167.707 32.3572C163.522 32.3572 160.035 33.7535 157.191 36.4923C154.348 39.2311 152.899 42.6144 152.899 46.6421ZM162.771 46.6421C162.771 44.9773 163.254 43.6347 164.166 42.5607C165.078 41.4866 166.258 40.9496 167.707 40.9496C169.156 40.9496 170.336 41.4866 171.248 42.5607C172.16 43.6347 172.643 44.9773 172.643 46.6421C172.643 48.3068 172.214 49.5957 171.302 50.6697C170.389 51.7438 169.156 52.2808 167.707 52.2808C166.258 52.2808 165.078 51.7438 164.166 50.6697C163.254 49.5957 162.771 48.3068 162.771 46.6421Z" fill="#13366C"/>
<path d="M184.475 57.5973C186.997 59.7991 190.752 60.8732 195.849 60.8732C197.137 60.8732 198.478 60.7121 199.819 60.3899C201.161 60.0676 202.502 59.638 203.843 58.9399C205.184 58.2418 206.311 57.2214 207.17 55.9326C208.028 54.6437 208.457 53.14 208.457 51.4216C208.457 49.6494 207.974 48.1457 207.062 46.9106C206.15 45.6754 205.024 44.7625 203.682 44.2254C202.341 43.6884 201 43.2588 199.658 42.8829C198.317 42.507 197.19 42.1848 196.278 41.8625C195.366 41.5403 194.883 41.1644 194.883 40.7348C194.883 40.1441 195.474 39.8756 196.6 39.8756C199.122 39.8756 201.751 40.4126 204.487 41.4866L207.384 34.9349C204.165 33.2165 200.463 32.3572 196.278 32.3572C193.167 32.3572 190.538 33.1628 188.338 34.7738C186.138 36.3849 185.012 38.6404 185.012 41.4866C185.012 43.8495 185.924 45.7291 187.748 47.1254C189.572 48.5216 192.094 49.5957 195.366 50.4012L196.332 50.5623C196.761 50.6697 197.083 50.7234 197.244 50.7771C197.405 50.8308 197.62 50.9382 197.888 51.0456C198.156 51.153 198.317 51.2605 198.424 51.3679C198.532 51.4753 198.585 51.6364 198.585 51.7975C198.585 52.1197 198.371 52.3345 197.888 52.5493C197.405 52.7641 197.029 52.8715 196.654 52.9252C196.278 52.9789 196.064 53.0326 195.903 53.0326C193.918 53.0326 192.362 52.8178 191.181 52.4419C190.001 52.066 188.767 51.529 187.587 50.7234L184.475 57.5973Z" fill="#13366C"/>
<path d="M213.899 51.4753C213.899 54.4289 214.703 56.7381 216.259 58.4029C217.815 60.0676 219.908 60.8732 222.59 60.8732C225.648 60.8732 228.224 60.175 230.262 58.7251L227.633 51.5827C226.829 52.1734 225.97 52.4419 225.165 52.4419C224.146 52.4419 223.663 51.8512 223.663 50.7234V40.6274H229.726V32.8942H223.663V25.537L213.899 27.9536V32.8942H209.875V40.6274H213.899V51.4753Z" fill="#13366C"/>
<path d="M235.495 60.3362H245.689V53.0326H250.786C255.936 53.0326 259.906 51.6901 262.75 49.1124C265.593 46.5346 266.988 43.2588 266.988 39.2848C266.988 35.3109 265.593 31.9813 262.803 29.4036C260.014 26.8259 255.99 25.537 250.839 25.537H235.495V60.3362ZM245.689 44.3866V34.1831H251.107C252.556 34.1831 253.79 34.6664 254.756 35.6331C255.721 36.5997 256.204 37.8349 256.204 39.2848C256.204 40.7348 255.721 41.9162 254.756 42.8829C253.79 43.8495 252.556 44.3866 251.054 44.3866H245.689Z" fill="#13366C"/>
<path d="M270.142 60.3362H279.907V25H270.142V60.3362Z" fill="#13366C"/>
<path d="M311.009 32.8942H301.245V45.8365C301.245 49.7568 299.903 51.7438 297.221 51.7438C295.987 51.7438 295.075 51.3142 294.538 50.5623C294.002 49.8105 293.68 48.629 293.68 46.9643V32.8942H283.915V48.1994C283.915 50.0253 284.076 51.6364 284.344 53.0326C284.613 54.4289 285.096 55.7715 285.793 57.0066C286.491 58.2418 287.51 59.2084 288.851 59.8528C290.192 60.4973 291.909 60.8732 293.894 60.8732C295.558 60.8732 297.006 60.6584 298.24 60.175C299.474 59.6917 300.654 58.7788 301.781 57.3288V60.3362H311.009V32.8942Z" fill="#13366C"/>
<path d="M314.018 57.5973C316.539 59.7991 320.295 60.8732 325.392 60.8732C326.68 60.8732 328.021 60.7121 329.362 60.3899C330.703 60.0676 332.045 59.638 333.386 58.9399C334.727 58.2418 335.854 57.2214 336.712 55.9326C337.571 54.6437 338 53.14 338 51.4216C338 49.6494 337.517 48.1457 336.605 46.9106C335.693 45.6754 334.566 44.7625 333.225 44.2254C331.884 43.6884 330.542 43.2588 329.201 42.8829C327.86 42.507 326.733 42.1848 325.821 41.8625C324.909 41.5403 324.426 41.1644 324.426 40.7348C324.426 40.1441 325.016 39.8756 326.143 39.8756C328.665 39.8756 331.294 40.4126 334.03 41.4866L336.927 34.9349C333.708 33.2165 330.006 32.3572 325.821 32.3572C322.709 32.3572 320.08 33.1628 317.881 34.7738C315.681 36.3849 314.554 38.6404 314.554 41.4866C314.554 43.8495 315.466 45.7291 317.291 47.1254C319.115 48.5216 321.636 49.5957 324.909 50.4012L325.875 50.5623C326.304 50.6697 326.626 50.7234 326.787 50.7771C326.948 50.8308 327.162 50.9382 327.431 51.0456C327.699 51.153 327.86 51.2605 327.967 51.3679C328.075 51.4753 328.128 51.6364 328.128 51.7975C328.128 52.1197 327.914 52.3345 327.431 52.5493C326.948 52.7641 326.572 52.8715 326.197 52.9252C325.821 52.9789 325.607 53.0326 325.446 53.0326C323.46 53.0326 321.905 52.8178 320.724 52.4419C319.544 52.066 318.31 51.529 317.13 50.7234L314.018 57.5973Z" fill="#13366C"/>
<path d="M122.715 18H125.185V13.84L127.187 16.622L129.189 13.814V18H131.659V9.57605H129.553L127.187 12.982L124.821 9.57605H122.715V18Z" fill="#13366C"/>
<path d="M137.091 15.01L138.196 11.864L139.301 15.01H137.091ZM136.428 16.908H139.964L140.354 18H142.876L139.47 9.57605H136.922L133.516 18H136.038L136.428 16.908Z" fill="#13366C"/>
<path d="M144.869 18H147.339V16.232C148.08 16.232 148.613 16.232 148.964 16.219L149.926 18H152.747L151.174 15.491C151.603 15.192 151.941 14.815 152.162 14.347C152.383 13.879 152.5 13.411 152.5 12.904C152.5 11.942 152.162 11.136 151.486 10.512C150.81 9.88805 149.835 9.57605 148.587 9.57605H144.869V18ZM147.339 14.139V11.669H148.626C148.99 11.669 149.302 11.786 149.536 12.02C149.77 12.254 149.887 12.553 149.887 12.904C149.887 13.255 149.77 13.541 149.536 13.775C149.302 14.009 148.99 14.139 148.613 14.139H147.339Z" fill="#13366C"/>
<path d="M155.097 18H157.567V16.752L158.763 15.179L160.362 18H163.248L160.219 13.242L162.819 9.57605H159.972L157.567 13.528V9.57605H155.097V18Z" fill="#13366C"/>
<path d="M175.132 14.984C174.664 15.608 174.066 15.92 173.338 15.92C172.753 15.92 172.285 15.725 171.908 15.322C171.531 14.919 171.349 14.412 171.349 13.788C171.349 13.177 171.544 12.683 171.934 12.28C172.324 11.877 172.779 11.682 173.338 11.682C173.897 11.682 174.391 11.903 174.82 12.345L176.445 10.668C175.626 9.84905 174.56 9.44604 173.234 9.44604C171.921 9.44604 170.855 9.86204 170.023 10.694C169.191 11.526 168.775 12.553 168.775 13.788C168.775 15.023 169.191 16.063 170.023 16.895C170.855 17.727 171.921 18.156 173.234 18.156C174.677 18.156 175.834 17.675 176.705 16.713L175.132 14.984Z" fill="#13366C"/>
<path d="M182.362 15.92C181.985 15.92 181.673 15.803 181.439 15.569C181.205 15.335 181.075 14.997 181.075 14.516V9.57605H178.605V14.659C178.605 15.777 178.956 16.635 179.658 17.246C180.36 17.857 181.257 18.156 182.362 18.156C183.467 18.156 184.377 17.857 185.079 17.246C185.781 16.635 186.119 15.777 186.119 14.659V9.57605H183.649V14.516C183.649 14.997 183.532 15.335 183.298 15.569C183.064 15.803 182.739 15.92 182.362 15.92Z" fill="#13366C"/>
<path d="M188.688 18H192.926C193.394 18 193.836 17.948 194.226 17.857C194.616 17.766 194.967 17.623 195.292 17.428C195.617 17.233 195.864 16.973 196.046 16.635C196.228 16.297 196.319 15.92 196.319 15.465C196.319 14.919 196.189 14.464 195.916 14.113C195.643 13.762 195.292 13.515 194.863 13.372C195.084 13.229 195.253 13.008 195.396 12.722C195.539 12.436 195.604 12.176 195.604 11.903C195.604 11.461 195.526 11.071 195.37 10.759C195.214 10.447 194.993 10.2 194.707 10.031C194.421 9.86204 194.122 9.74504 193.81 9.68005C193.498 9.61505 193.134 9.57605 192.757 9.57605H188.688V18ZM191.158 14.711H192.861C193.446 14.711 193.745 14.906 193.745 15.309C193.745 15.712 193.446 15.907 192.861 15.907H191.158V14.711ZM193.29 12.293C193.29 12.67 193.043 12.865 192.536 12.865H191.158V11.669H192.536C193.043 11.669 193.29 11.877 193.29 12.293Z" fill="#13366C"/>
<path d="M201.204 15.01L202.309 11.864L203.414 15.01H201.204ZM200.541 16.908H204.077L204.467 18H206.989L203.583 9.57605H201.035L197.629 18H200.151L200.541 16.908Z" fill="#13366C"/>
<path d="M208.853 18H211.323V13.814L214.378 18H216.523V9.57605H214.053V13.827L210.998 9.57605H208.853V18Z" fill="#13366C"/>
<path d="M126.655 79.941V73.747H128.042C128.954 73.747 129.695 74.032 130.246 74.621C130.797 75.21 131.063 75.951 131.063 76.844C131.063 77.737 130.797 78.478 130.246 79.067C129.695 79.656 128.954 79.941 128.042 79.941H126.655ZM123.045 83H128.175C130.189 83 131.804 82.392 133.039 81.214C134.274 80.036 134.882 78.573 134.882 76.844C134.882 75.115 134.274 73.633 133.039 72.455C131.804 71.277 130.189 70.688 128.175 70.688H123.045V83Z" fill="#13366C"/>
<path d="M137.92 83H141.53V80.416C142.613 80.416 143.392 80.416 143.905 80.397L145.311 83H149.434L147.135 79.333C147.762 78.896 148.256 78.345 148.579 77.661C148.902 76.977 149.073 76.293 149.073 75.552C149.073 74.146 148.579 72.968 147.591 72.056C146.603 71.144 145.178 70.688 143.354 70.688H137.92V83ZM141.53 77.357V73.747H143.411C143.943 73.747 144.399 73.918 144.741 74.26C145.083 74.602 145.254 75.039 145.254 75.552C145.254 76.065 145.083 76.483 144.741 76.825C144.399 77.167 143.943 77.357 143.392 77.357H141.53Z" fill="#13366C"/>
<path d="M157.751 79.96C157.2 79.96 156.744 79.789 156.402 79.447C156.06 79.105 155.87 78.611 155.87 77.908V70.688H152.26V78.117C152.26 79.751 152.773 81.005 153.799 81.898C154.825 82.791 156.136 83.228 157.751 83.228C159.366 83.228 160.696 82.791 161.722 81.898C162.748 81.005 163.242 79.751 163.242 78.117V70.688H159.632V77.908C159.632 78.611 159.461 79.105 159.119 79.447C158.777 79.789 158.302 79.96 157.751 79.96Z" fill="#13366C"/>
<path d="M166.237 76.844C166.237 78.649 166.845 80.169 168.08 81.385C169.315 82.601 170.892 83.228 172.83 83.228C173.951 83.228 174.977 83 175.927 82.563C176.877 82.126 177.599 81.537 178.112 80.777V76.008H173.305V78.136H174.996V79.257C174.312 79.732 173.609 79.96 172.906 79.96C172.051 79.96 171.367 79.675 170.816 79.086C170.265 78.497 169.999 77.756 169.999 76.844C169.999 75.951 170.284 75.229 170.854 74.64C171.424 74.051 172.089 73.766 172.906 73.766C173.723 73.766 174.445 74.089 175.072 74.735L177.447 72.284C176.25 71.087 174.692 70.498 172.754 70.498C170.835 70.498 169.277 71.106 168.061 72.322C166.845 73.538 166.237 75.039 166.237 76.844Z" fill="#13366C"/>
<path d="M196.362 78.592C195.678 79.504 194.804 79.96 193.74 79.96C192.885 79.96 192.201 79.675 191.65 79.086C191.099 78.497 190.833 77.756 190.833 76.844C190.833 75.951 191.118 75.229 191.688 74.64C192.258 74.051 192.923 73.766 193.74 73.766C194.557 73.766 195.279 74.089 195.906 74.735L198.281 72.284C197.084 71.087 195.526 70.498 193.588 70.498C191.669 70.498 190.111 71.106 188.895 72.322C187.679 73.538 187.071 75.039 187.071 76.844C187.071 78.649 187.679 80.169 188.895 81.385C190.111 82.601 191.669 83.228 193.588 83.228C195.697 83.228 197.388 82.525 198.661 81.119L196.362 78.592Z" fill="#13366C"/>
<path d="M204.668 76.844C204.668 75.951 204.953 75.229 205.504 74.64C206.055 74.051 206.72 73.766 207.499 73.766C208.335 73.766 209.019 74.051 209.551 74.621C210.083 75.191 210.349 75.951 210.349 76.844C210.349 77.756 210.083 78.497 209.551 79.086C209.019 79.675 208.335 79.96 207.499 79.96C206.682 79.96 205.998 79.675 205.466 79.086C204.934 78.497 204.668 77.756 204.668 76.844ZM200.906 76.844C200.906 78.649 201.514 80.169 202.749 81.385C203.984 82.601 205.561 83.228 207.499 83.228C209.456 83.228 211.033 82.601 212.268 81.385C213.503 80.169 214.111 78.649 214.111 76.844C214.111 75.058 213.503 73.538 212.268 72.322C211.033 71.106 209.437 70.498 207.499 70.498C205.561 70.498 203.984 71.106 202.749 72.322C201.514 73.538 200.906 75.058 200.906 76.844Z" fill="#13366C"/>
<path d="M216.955 83H220.565V76.92L223.491 80.986L226.417 76.882V83H230.027V70.688H226.949L223.491 75.666L220.033 70.688H216.955V83Z" fill="#13366C"/>
<path d="M233.824 83H237.434V80.416H239.239C241.063 80.416 242.469 79.941 243.476 79.029C244.483 78.117 244.977 76.958 244.977 75.552C244.977 74.146 244.483 72.968 243.495 72.056C242.507 71.144 241.082 70.688 239.258 70.688H233.824V83ZM237.434 77.357V73.747H239.353C239.866 73.747 240.303 73.918 240.645 74.26C240.987 74.602 241.158 75.039 241.158 75.552C241.158 76.065 240.987 76.483 240.645 76.825C240.303 77.167 239.866 77.357 239.334 77.357H237.434Z" fill="#13366C"/>
<path d="M251.186 78.63L252.801 74.032L254.416 78.63H251.186ZM250.217 81.404H255.385L255.955 83H259.641L254.663 70.688H250.939L245.961 83H249.647L250.217 81.404Z" fill="#13366C"/>
<path d="M261.984 83H265.594V76.882L270.059 83H273.194V70.688H269.584V76.901L265.119 70.688H261.984V83Z" fill="#13366C"/>
<path d="M280.266 83H283.876V77.661L288.17 70.688H284.047L282.071 74.507L280.038 70.688H275.915L280.266 77.661V83Z" fill="#13366C"/>
<path fill-rule="evenodd" clip-rule="evenodd" d="M96 0H0V92H96V0ZM58.6429 77.3852C64.8503 76.1505 70.5521 73.1028 75.0274 68.6275L61.451 55.0511C59.6608 56.8412 57.3801 58.0603 54.8971 58.5542C52.4142 59.048 49.8405 58.7946 47.5016 57.8258C45.1628 56.857 43.1637 55.2164 41.7572 53.1114C40.3507 51.0065 39.6 48.5317 39.6 46.0001C39.6 43.4685 40.3507 40.9938 41.7572 38.8888C43.1637 36.7839 45.1627 35.1432 47.5016 34.1744C49.8405 33.2056 52.4142 32.9522 54.8971 33.4461C57.3801 33.9399 59.6608 35.159 61.451 36.9491L75.0274 23.3727C70.5521 18.8974 64.8503 15.8497 58.6429 14.615C52.4355 13.3803 46.0014 14.014 40.1541 16.436C34.3069 18.858 29.3092 22.9595 25.793 28.2219C22.2768 33.4842 20.4 39.6711 20.4 46.0001C20.4 52.3291 22.2768 58.516 25.793 63.7784C29.3092 69.0407 34.3069 73.1422 40.1541 75.5642C46.0014 77.9863 52.4355 78.62 58.6429 77.3852Z" fill="#13366C"/>
</svg>