<?xml version="1.0" encoding="UTF-8"?>
<!-- Generator: Adobe Illustrator 16.0.0, SVG Export Plug-In . SVG Version: 6.00 Build 0)  -->
<!DOCTYPE svg PUBLIC "-//W3C//DTD SVG 1.0//EN" "http://www.w3.org/TR/2001/REC-SVG-20010904/DTD/svg10.dtd">
<svg version="1.0" id="Layer_1" xmlns="http://www.w3.org/2000/svg" xmlns:xlink="http://www.w3.org/1999/xlink" x="0px" y="0px" width="140px" height="118px" viewBox="0 0 140 118" enable-background="new 0 0 140 118" xml:space="preserve">
<g>
	<path d="M0.452,1.48H21.91v9.073H9.885v14.185h9.505v9.001H9.885v18.505H0.452V1.48z"/>
	<path d="M24.156,26.898c0-19.442,6.337-25.85,14.473-25.85c8.137,0,14.474,6.408,14.474,25.85c0,19.37-6.337,25.778-14.474,25.778   C30.493,52.676,24.156,46.268,24.156,26.898z M43.598,26.97c0-9.36-1.224-16.417-4.969-16.417c-3.672,0-4.968,7.057-4.968,16.417   c0,9.361,1.296,16.778,4.968,16.778C42.374,43.748,43.598,36.331,43.598,26.97z"/>
	<path d="M65.949,26.106v26.138h-8.497V1.48h4.969l13.537,23.546V1.48h8.497v50.764h-4.104L65.949,26.106z"/>
	<path d="M88.148,10.553V1.48h25.922v9.073h-8.064v41.691h-9.648V10.553H88.148z"/>
	<path d="M115.004,50.012l2.881-7.993c1.729,0.864,5.256,1.944,8.064,1.944c2.808,0,4.176-1.44,4.176-3.6   c0-6.481-13.896-15.625-13.896-27.002c0-9.721,6.625-12.313,12.674-12.313c3.744,0,7.199,1.08,8.713,1.8l-2.809,8.425   c-1.729-0.648-3.961-1.08-5.545-1.08c-2.16,0-3.601,1.08-3.601,3.168c0,6.192,14.041,15.913,14.041,27.002   c0,8.208-5.185,12.241-13.609,12.241C122.061,52.604,118.027,51.596,115.004,50.012z"/>
	<path d="M0.668,65.48h9.505v50.764H0.668V65.48z"/>
	<path d="M24.949,90.105v26.139h-8.497V65.48h4.969l13.537,23.545V65.48h8.497v50.764h-4.104L24.949,90.105z"/>
	<path d="M57.269,96.802V65.48h9.505v32.475c0,7.128,0.432,10.513,4.033,10.513c3.6,0,4.031-3.384,4.031-10.513V65.48h9.217v31.321   c0,14.187-3.097,20.45-13.394,20.45C60.292,117.252,57.269,111.132,57.269,96.802z"/>
	<path d="M86.964,114.012l2.882-7.992c1.727,0.863,5.256,1.943,8.063,1.943s4.176-1.439,4.176-3.6   c0-6.481-13.896-15.625-13.896-27.002c0-9.721,6.623-12.313,12.672-12.313c3.744,0,7.201,1.08,8.714,1.8l-2.81,8.426   c-1.729-0.648-3.959-1.08-5.543-1.08c-2.16,0-3.602,1.08-3.602,3.168c0,6.191,14.041,15.912,14.041,27.002   c0,8.207-5.186,12.24-13.609,12.24C94.021,116.604,89.988,115.596,86.964,114.012z"/>
	<path d="M115.412,65.48h21.458v9.072h-12.024v11.521h9.072v9.072h-9.072v12.457h12.456v8.642h-21.89V65.48z"/>
</g>
</svg>