<?xml version="1.0" encoding="UTF-8" standalone="no"?>
<svg
     width="72pt"
     height="72pt"
     viewBox="0 0 72 72"
     version="1.1"
     id="svg16"
     xmlns="http://www.w3.org/2000/svg"
     xmlns:svg="http://www.w3.org/2000/svg">
    <defs
         id="defs6">
        <clipPath
             id="clip-1">
            <path
                 clip-rule="nonzero"
                 d="M 66.519531 29.78125 L 66.519531 51.738281 C 66.519531 60.679688 59.199219 68 50.261719 68 C 41.378906 68 34.0625 60.679688 34.0625 51.738281 L 34.0625 29.78125 C 34.0625 23.058594 38.253906 17.199219 44.140625 14.746094 C 46.453125 15.652344 48.039062 17.855469 48.039062 20.539062 C 48.039062 22.28125 47.351562 23.839844 46.21875 24.964844 L 46.234375 24.988281 C 44.875 26.128906 44.019531 27.84375 44.019531 29.78125 L 44.019531 51.738281 C 44.019531 55.28125 46.78125 58.039062 50.261719 58.039062 C 53.800781 58.039062 56.558594 55.28125 56.558594 51.738281 L 56.558594 29.78125 C 56.558594 29.09375 56.453125 28.433594 56.253906 27.820312 C 57.371094 25.621094 58 23.144531 58 20.539062 C 58 18.601562 57.65625 16.742188 57.027344 15.015625 C 62.613281 17.609375 66.519531 23.292969 66.519531 29.78125 Z M 66.519531 29.78125 "
                 id="path2" />
        </clipPath>
        <clipPath
             id="clip-3">
            <path
                 clip-rule="nonzero"
                 d="M 66.519531 29.78125 L 66.519531 51.738281 C 66.519531 60.679688 59.199219 68 50.261719 68 C 41.378906 68 34.0625 60.679688 34.0625 51.738281 L 34.0625 29.78125 C 34.0625 23.058594 38.253906 17.199219 44.140625 14.746094 C 46.453125 15.652344 48.039062 17.855469 48.039062 20.539062 C 48.039062 22.28125 47.351562 23.839844 46.21875 24.964844 L 46.234375 24.988281 C 44.875 26.128906 44.019531 27.84375 44.019531 29.78125 L 44.019531 51.738281 C 44.019531 55.28125 46.78125 58.039062 50.261719 58.039062 C 53.800781 58.039062 56.558594 55.28125 56.558594 51.738281 L 56.558594 29.78125 C 56.558594 29.09375 56.453125 28.433594 56.253906 27.820312 C 57.371094 25.621094 58 23.144531 58 20.539062 C 58 18.601562 57.65625 16.742188 57.027344 15.015625 C 62.613281 17.609375 66.519531 23.292969 66.519531 29.78125 Z M 66.519531 29.78125 "
                 id="path4" />
        </clipPath>
        <clipPath
             id="clip-5">
            <path
                 clip-rule="nonzero"
                 d="M 66.519531 29.78125 L 66.519531 51.738281 C 66.519531 60.679688 59.199219 68 50.261719 68 C 41.378906 68 34.0625 60.679688 34.0625 51.738281 L 34.0625 29.78125 C 34.0625 23.058594 38.253906 17.199219 44.140625 14.746094 C 46.453125 15.652344 48.039062 17.855469 48.039062 20.539062 C 48.039062 22.28125 47.351562 23.839844 46.21875 24.964844 L 46.234375 24.988281 C 44.875 26.128906 44.019531 27.84375 44.019531 29.78125 L 44.019531 51.738281 C 44.019531 55.28125 46.78125 58.039062 50.261719 58.039062 C 53.800781 58.039062 56.558594 55.28125 56.558594 51.738281 L 56.558594 29.78125 C 56.558594 29.09375 56.453125 28.433594 56.253906 27.820312 C 57.371094 25.621094 58 23.144531 58 20.539062 C 58 18.601562 57.65625 16.742188 57.027344 15.015625 C 62.613281 17.609375 66.519531 23.292969 66.519531 29.78125 Z M 66.519531 29.78125 "
                 id="path6" />
        </clipPath>
    </defs>
    <path
         fill="none"
         stroke-width="10"
         stroke-linecap="butt"
         stroke-linejoin="round"
         stroke="rgb(51.411438%, 57.415771%, 81.278992%)"
         stroke-opacity="1"
         stroke-miterlimit="10"
         d="M 41.90625 62.742188 C 48.121094 62.742188 53.15625 57.703125 53.15625 51.492188 C 53.15625 45.277344 48.121094 40.242188 41.90625 40.242188 L 19.933594 40.242188 C 13.71875 40.242188 8.683594 45.277344 8.683594 51.492188 C 8.683594 57.703125 13.71875 62.742188 19.933594 62.742188 Z M 41.90625 62.742188 "
         transform="matrix(1, 0, 0, -1, 0, 72)"
         id="path7" />
    <path
         fill="none"
         stroke-width="5"
         stroke-linecap="butt"
         stroke-linejoin="round"
         stroke="rgb(66.485596%, 73.06366%, 99.998474%)"
         stroke-opacity="1"
         stroke-miterlimit="10"
         d="M 41.90625 62.742188 C 48.121094 62.742188 53.15625 57.703125 53.15625 51.492188 C 53.15625 45.277344 48.121094 40.242188 41.90625 40.242188 L 19.933594 40.242188 C 13.71875 40.242188 8.683594 45.277344 8.683594 51.492188 C 8.683594 57.703125 13.71875 62.742188 19.933594 62.742188 Z M 41.90625 62.742188 "
         transform="matrix(1, 0, 0, -1, 0, 72)"
         id="path8" />
    <path
         fill="none"
         stroke-width="2"
         stroke-linecap="butt"
         stroke-linejoin="round"
         stroke="rgb(88.137817%, 90.480042%, 99.998474%)"
         stroke-opacity="1"
         stroke-miterlimit="10"
         d="M 41.90625 62.742188 C 48.121094 62.742188 53.15625 57.703125 53.15625 51.492188 C 53.15625 45.277344 48.121094 40.242188 41.90625 40.242188 L 19.933594 40.242188 C 13.71875 40.242188 8.683594 45.277344 8.683594 51.492188 C 8.683594 57.703125 13.71875 62.742188 19.933594 62.742188 Z M 41.90625 62.742188 "
         transform="matrix(1, 0, 0, -1, 0, 72)"
         id="path9" />
    <g
         clip-path="none"
         id="g12">
        <g
             clip-path="url(#clip-1)"
             id="g11">
            <path
                 fill="none"
                 stroke-width="10"
                 stroke-linecap="butt"
                 stroke-linejoin="round"
                 stroke="rgb(51.411438%, 57.415771%, 81.278992%)"
                 stroke-opacity="1"
                 stroke-miterlimit="10"
                 d="M 61.671875 20.253906 C 61.671875 14.042969 56.632812 9.003906 50.421875 9.003906 C 44.207031 9.003906 39.171875 14.042969 39.171875 20.253906 L 39.171875 42.226562 C 39.171875 48.441406 44.207031 53.476562 50.421875 53.476562 C 56.632812 53.476562 61.671875 48.441406 61.671875 42.226562 Z M 61.671875 20.253906 "
                 transform="matrix(1, 0, 0, -1, 0, 72)"
                 id="path11" />
        </g>
    </g>
    <g
         clip-path="none"
         id="g14">
        <g
             clip-path="url(#clip-3)"
             id="g13">
            <path
                 fill="none"
                 stroke-width="5"
                 stroke-linecap="butt"
                 stroke-linejoin="round"
                 stroke="rgb(66.485596%, 73.06366%, 99.998474%)"
                 stroke-opacity="1"
                 stroke-miterlimit="10"
                 d="M 61.671875 20.253906 C 61.671875 14.042969 56.632812 9.003906 50.421875 9.003906 C 44.207031 9.003906 39.171875 14.042969 39.171875 20.253906 L 39.171875 42.226562 C 39.171875 48.441406 44.207031 53.476562 50.421875 53.476562 C 56.632812 53.476562 61.671875 48.441406 61.671875 42.226562 Z M 61.671875 20.253906 "
                 transform="matrix(1, 0, 0, -1, 0, 72)"
                 id="path12" />
        </g>
    </g>
    <g
         clip-path="none"
         id="g16">
        <g
             clip-path="url(#clip-5)"
             id="g15">
            <path
                 fill="none"
                 stroke-width="2"
                 stroke-linecap="butt"
                 stroke-linejoin="round"
                 stroke="rgb(88.137817%, 90.480042%, 99.998474%)"
                 stroke-opacity="1"
                 stroke-miterlimit="10"
                 d="M 61.671875 20.253906 C 61.671875 14.042969 56.632812 9.003906 50.421875 9.003906 C 44.207031 9.003906 39.171875 14.042969 39.171875 20.253906 L 39.171875 42.226562 C 39.171875 48.441406 44.207031 53.476562 50.421875 53.476562 C 56.632812 53.476562 61.671875 48.441406 61.671875 42.226562 Z M 61.671875 20.253906 "
                 transform="matrix(1, 0, 0, -1, 0, 72)"
                 id="path14" />
        </g>
    </g>
</svg>
