<?xml version="1.0" encoding="UTF-8" standalone="yes"?>
<svg xmlns="http://www.w3.org/2000/svg" xmlns:xlink="http://www.w3.org/1999/xlink" width="475.7804" height="45.1044" viewBox="0 0 475.7804 45.1044">
  <defs>
    <linearGradient id="linear-gradient" x1="33.66" y1="29.71399" x2="33.66" y2="123.93007" gradientUnits="userSpaceOnUse">
      <stop offset="0" stop-color="#fff"/>
      <stop offset="1"/>
    </linearGradient>
    <symbol id="play-button" data-name="play-button" viewBox="0 0 67.32 67.32">
      <g>
        <rect x="1.53" y="1.53" width="64.26" height="64.26" rx="9.18" style="fill: url(#linear-gradient)"/>
        <rect x="1.53" y="1.53" width="64.26" height="64.26" rx="9.18" style="fill: none;stroke: #999;stroke-width: 3.06px"/>
      </g>
      <polygon points="19.755 15.889 53.686 33.66 19.755 51.431 19.755 15.889"/>
    </symbol>
    <symbol id="pause-button" data-name="pause-button" viewBox="0 0 67.32 67.32">
      <g>
        <rect x="1.53" y="1.53" width="64.26" height="64.26" rx="9.18" style="fill: url(#linear-gradient)"/>
        <rect x="1.53" y="1.53" width="64.26" height="64.26" rx="9.18" style="fill: none;stroke: #999;stroke-width: 3.06px"/>
      </g>
      <rect x="19.52249" y="19.62106" width="11.78131" height="30.62999"/>
      <rect x="36.0162" y="19.62106" width="11.7813" height="30.62999"/>
    </symbol>
    <symbol id="stop-button" data-name="stop-button" viewBox="0 0 67.32 67.32">
      <g>
        <rect x="1.53" y="1.53" width="64.26" height="64.26" rx="9.18" style="fill: url(#linear-gradient)"/>
        <rect x="1.53" y="1.53" width="64.26" height="64.26" rx="9.18" style="fill: none;stroke: #999;stroke-width: 3.06px"/>
      </g>
      <rect x="19.52248" y="19.52253" width="28.27501" height="28.27501"/>
    </symbol>
    <symbol id="fast-forward-button" data-name="fast-forward-button" viewBox="0 0 67.32 67.32">
      <g>
        <rect x="1.53" y="1.53" width="64.26" height="64.26" rx="9.18" style="fill: url(#linear-gradient)"/>
        <rect x="1.53" y="1.53" width="64.26" height="64.26" rx="9.18" style="fill: none;stroke: #999;stroke-width: 3.06px"/>
      </g>
      <polygon points="39.069 17.665 53.118 33.66 52.464 34.404 39.069 49.653 39.069 17.665"/>
      <polygon points="22.575 17.665 36.625 33.66 35.596 34.83 22.575 49.653 22.575 17.665"/>
    </symbol>
    <symbol id="rewind-button" data-name="rewind-button" viewBox="0 0 67.32 67.32">
      <g>
        <rect x="1.53" y="1.53" width="64.26" height="64.26" rx="9.18" style="fill: url(#linear-gradient)"/>
        <rect x="1.53" y="1.53" width="64.26" height="64.26" rx="9.18" style="fill: none;stroke: #999;stroke-width: 3.06px"/>
      </g>
      <polygon points="28.251 17.665 14.202 33.66 14.856 34.404 28.251 49.653 28.251 17.665"/>
      <polygon points="44.745 17.665 30.696 33.66 31.724 34.83 44.745 49.653 44.745 17.665"/>
    </symbol>
    <symbol id="chapter-forward-button" data-name="chapter-forward-button" viewBox="0 0 67.32 67.32">
      <g>
        <rect x="1.53" y="1.53" width="64.26" height="64.26" rx="9.18" style="fill: url(#linear-gradient)"/>
        <rect x="1.53" y="1.53" width="64.26" height="64.26" rx="9.18" style="fill: none;stroke: #999;stroke-width: 3.06px"/>
      </g>
      <polygon points="38.756 17.712 52.806 33.705 52.152 34.45 38.756 49.7 38.756 17.712"/>
      <rect x="20.17395" y="19.3732" width="11.78131" height="30.62968"/>
    </symbol>
    <symbol id="chapter-back-button" data-name="chapter-back-button" viewBox="0 0 67.32 67.32">
      <g>
        <rect x="1.53" y="1.53" width="64.26" height="64.26" rx="9.18" style="fill: url(#linear-gradient)"/>
        <rect x="1.53" y="1.53" width="64.26" height="64.26" rx="9.18" style="fill: none;stroke: #999;stroke-width: 3.06px"/>
      </g>
      <path d="M28.56357,20.77162c0-1.683-.90878-2.02547-2.01951-.761L16.5337,31.40607c-1.11073,1.26442-1.87231,2.46667-1.69239,2.67166s1.23587,1.40725,2.34658,2.67169L26.5441,47.40065c1.11071,1.26444,2.01947.922,2.01947-.761Z"/>
      <rect x="35.36473" y="19.3732" width="11.78131" height="30.62968"/>
    </symbol>
    <symbol id="shuffle-button" data-name="shuffle-button" viewBox="0 0 67.32 67.32">
      <g>
        <rect x="1.53" y="1.53" width="64.26" height="64.26" rx="9.18" style="fill: url(#linear-gradient)"/>
        <rect x="1.53" y="1.53" width="64.26" height="64.26" rx="9.18" style="fill: none;stroke: #999;stroke-width: 3.06px"/>
      </g>
      <path d="M34.61031,35.73a46.09932,46.09932,0,0,1-2.98712,4.76458c-.61255.85914-1.25153,1.69721-1.91547,2.50263-3.88708,4.7149-8.53265,8.30408-12.52807,8.30408h-7.21v-6h7.21c1.66815,0,5.59674-2.967,9.1643-7.75824.63935-.85865,1.26477-1.77564,1.86566-2.74543.38617-.62323.76526-1.26025,1.12531-1.925.6886-1.27137,1.46356-2.54206,2.29223-3.78339q.87891-1.31634,1.83924-2.56842c3.95642-5.15766,8.78393-9.21948,12.79626-9.21948H49.97V12.41613l8.25,7.53925-8.25,7.53918V23.30127H46.26265c-1.38226,0-5.474,3.01391-9.31366,8.61-.616.89783-1.22345,1.8642-1.81421,2.89368C34.95919,35.1109,34.78225,35.41259,34.61031,35.73Zm-8.24414-3.70166c.11041-.195.223-.3855.33105-.585a51.68087,51.68087,0,0,1,3.02765-4.87629c-3.80554-4.69574-8.2857-8.2658-12.04815-8.2658h-6.707v6h6.707C18.98415,24.30127,22.71688,27.0014,26.36617,32.02832ZM49.97,46.30127H46.7607c-1.76794,0-6.07648-3.32648-9.80176-8.63245a48.73465,48.73465,0,0,1-3.48834,5.37329c4.0307,5.17639,9.02869,9.25916,13.2901,9.25916H49.97v3.88562l8.25-7.53925-8.25-7.53918Z"/>
    </symbol>
  </defs>
  <g id="play-head-buttons">
    <use width="67.32" height="67.32" transform="translate(123.25433 0) scale(0.67)" href="#play-button" xlink:href="#play-button" />
    <use width="67.32" height="67.32" transform="translate(184.518 0) scale(0.67)" href="#pause-button" xlink:href="#pause-button" />
    <use width="67.32" height="67.32" transform="translate(246.024 0) scale(0.67)" href="#stop-button" xlink:href="#stop-button" />
    <use width="67.32" height="67.32" transform="translate(307.53 0) scale(0.67)" href="#fast-forward-button" xlink:href="#fast-forward-button" />
    <use width="67.32" height="67.32" transform="translate(61.506 0) scale(0.67)" href="#rewind-button" xlink:href="#rewind-button" />
    <use width="67.32" height="67.32" transform="translate(369.036 0) scale(0.67)" href="#chapter-forward-button" xlink:href="#chapter-forward-button" />
    <use width="67.32" height="67.32" transform="translate(0 0) scale(0.67)" href="#chapter-back-button" xlink:href="#chapter-back-button" />
    <use width="67.32" height="67.32" transform="translate(430.676 0) scale(0.67)" href="#shuffle-button" xlink:href="#shuffle-button" />
  </g>
</svg>
