<?xml version="1.0" encoding="UTF-8" standalone="no"?>
<!-- Created with Inkscape (http://www.inkscape.org/) -->

<svg
     width="549.98584"
     height="273.57278"
     viewBox="0 0 549.98584 273.57278"
     version="1.1"
     id="svg195"
     inkscape:version="1.4 (86a8ad7, 2024-10-11)"
     sodipodi:docname="not-available.svg"
     xmlns:inkscape="http://www.inkscape.org/namespaces/inkscape"
     xmlns:sodipodi="http://sodipodi.sourceforge.net/DTD/sodipodi-0.dtd"
     xmlns="http://www.w3.org/2000/svg"
     xmlns:svg="http://www.w3.org/2000/svg"
     xmlns:rdf="http://www.w3.org/1999/02/22-rdf-syntax-ns#"
     xmlns:cc="http://creativecommons.org/ns#"
     xmlns:dc="http://purl.org/dc/elements/1.1/">
    <defs
         id="defs189">
        <rect
             x="47.619049"
             y="388.57144"
             width="497.14285"
             height="165.71429"
             id="rect1" />
    </defs>
    <sodipodi:namedview
         id="base"
         pagecolor="#ffffff"
         bordercolor="#000000"
         borderopacity="0.30"
         inkscape:pageopacity="0.0"
         inkscape:pageshadow="2"
         inkscape:zoom="0.7875"
         inkscape:cx="317.46032"
         inkscape:cy="161.90476"
         inkscape:document-units="px"
         inkscape:current-layer="layer1"
         inkscape:showpageshadow="2"
         inkscape:pagecheckerboard="0"
         inkscape:deskcolor="#d1d1d1"
         showgrid="false" />
    <metadata
         id="metadata192">
        <rdf:RDF>
            <cc:Work
                 rdf:about="">
                <dc:format>image/svg+xml</dc:format>
                <dc:type
                     rdf:resource="http://purl.org/dc/dcmitype/StillImage" />
            </cc:Work>
        </rdf:RDF>
    </metadata>
    <g
         inkscape:label="Layer 1"
         inkscape:groupmode="layer"
         id="layer1"
         transform="translate(-99.676579,-68.902765)">
        <path
             id="path3"
             style="fill:#d00704;fill-opacity:1;fill-rule:evenodd;stroke:none;stroke-width:1.33333"
             d="m 307.54989,126.99484 c 0.1,-0.65066 0.20533,-1.148 0.316,-1.49066 0.10933,-0.34267 0.31066,-0.59067 0.60266,-0.74267 0.29067,-0.152 0.76,-0.26667 1.40534,-0.34533 0.372,-0.0453 0.68533,-0.17067 0.94133,-0.37467 0.25467,-0.204 0.41733,-0.49333 0.488,-0.868 0.0573,-0.38667 0.0173,-0.708 -0.12133,-0.96267 -0.13867,-0.256 -0.32,-0.45866 -0.54534,-0.608 -0.224,-0.14933 -0.436,-0.25733 -0.636,-0.324 -0.19866,-0.0653 -0.32933,-0.10266 -0.392,-0.11066 l -15.16666,-2.62667 c -0.0613,-0.0147 -0.19733,-0.024 -0.40667,-0.028 -0.21066,-0.005 -0.44666,0.0253 -0.708,0.0907 -0.26133,0.064 -0.50133,0.19466 -0.71733,0.388 -0.21733,0.19466 -0.36267,0.484 -0.43867,0.86666 -0.06,0.376 -0.004,0.704 0.168,0.98134 0.172,0.27866 0.42534,0.50133 0.76,0.67066 0.58134,0.29067 0.984,0.556 1.208,0.79734 0.22267,0.24133 0.32934,0.54266 0.31734,0.90133 -0.0107,0.36 -0.08,0.864 -0.204,1.51067 l -4.86534,28.08133 c -0.1,0.652 -0.20533,1.148 -0.316,1.49067 -0.10933,0.344 -0.31066,0.59066 -0.60266,0.74266 -0.292,0.152 -0.76,0.26667 -1.40534,0.34534 -0.372,0.0453 -0.68533,0.17066 -0.94133,0.37466 -0.25467,0.204 -0.41733,0.49334 -0.488,0.868 -0.0587,0.38667 -0.0173,0.708 0.12133,0.964 0.13867,0.256 0.32,0.45867 0.54534,0.60667 0.224,0.14933 0.436,0.25733 0.636,0.324 0.19866,0.0667 0.32933,0.10267 0.392,0.11067 l 15.16666,2.62666 c 0.0613,0.0147 0.19733,0.024 0.40667,0.028 0.21066,0.005 0.44666,-0.0253 0.708,-0.0893 0.26133,-0.0653 0.50133,-0.19467 0.71733,-0.38933 0.21733,-0.19467 0.36267,-0.48267 0.43867,-0.86667 0.0587,-0.376 0.003,-0.704 -0.168,-0.98133 -0.172,-0.27867 -0.42534,-0.50134 -0.76,-0.67067 -0.58134,-0.29067 -0.984,-0.556 -1.208,-0.79733 -0.22267,-0.24134 -0.32934,-0.54134 -0.31734,-0.90134 0.0107,-0.36 0.0787,-0.864 0.204,-1.51066 z m 7.676,27.71467 c -0.34,1.08133 -0.7,1.93867 -1.08,2.572 -0.38,0.63333 -0.764,1.10933 -1.15067,1.428 -0.38667,0.31733 -0.76,0.544 -1.12,0.67733 -0.35867,0.13467 -0.68667,0.24267 -0.984,0.32534 -0.29733,0.0827 -0.54533,0.204 -0.74667,0.36533 -0.2,0.16267 -0.33466,0.42933 -0.404,0.80267 -0.0613,0.412 0.001,0.748 0.188,1.00533 0.188,0.25733 0.43467,0.45733 0.74134,0.59867 0.30666,0.14133 0.608,0.24266 0.90533,0.30533 0.29733,0.0627 0.524,0.10533 0.68267,0.128 l 6.108,1.05867 c 0.15733,0.032 0.38533,0.068 0.68666,0.10933 0.3,0.04 0.61867,0.0453 0.95467,0.016 0.33733,-0.0293 0.636,-0.13467 0.9,-0.31467 0.26267,-0.18 0.43467,-0.47333 0.516,-0.88266 0.06,-0.37467 0.0227,-0.672 -0.112,-0.892 -0.13467,-0.21867 -0.328,-0.41734 -0.58,-0.59467 -0.252,-0.17733 -0.524,-0.39067 -0.81733,-0.63733 -0.29334,-0.248 -0.568,-0.58534 -0.82667,-1.016 -0.25733,-0.42934 -0.45867,-1.00667 -0.60267,-1.73067 -0.14533,-0.72533 -0.196,-1.65333 -0.152,-2.78533 l 1.59734,-9.21734 -1.468,-9.36266 -0.108,-0.0187 z m 21.70666,6.3 c -0.10133,0.652 -0.20666,1.148 -0.316,1.49067 -0.11066,0.344 -0.312,0.59066 -0.60266,0.74266 -0.292,0.152 -0.76134,0.26667 -1.40667,0.34534 -0.372,0.0453 -0.68533,0.17066 -0.94133,0.37466 -0.25467,0.204 -0.41734,0.49334 -0.488,0.868 -0.0587,0.38667 -0.0173,0.708 0.12133,0.964 0.13867,0.256 0.32,0.45867 0.54533,0.60667 0.224,0.14933 0.436,0.25733 0.636,0.324 0.19867,0.0667 0.32934,0.10267 0.39334,0.11067 l 15.16533,2.62666 c 0.0613,0.0147 0.19733,0.024 0.408,0.0293 0.20933,0.004 0.44533,-0.0267 0.70667,-0.0907 0.26266,-0.0653 0.50133,-0.19467 0.71866,-0.38933 0.216,-0.19467 0.36267,-0.48267 0.43734,-0.86667 0.06,-0.376 0.004,-0.70267 -0.168,-0.98133 -0.17067,-0.27867 -0.424,-0.50134 -0.76,-0.66934 -0.58134,-0.292 -0.98267,-0.55733 -1.20667,-0.79866 -0.224,-0.24134 -0.33067,-0.54134 -0.31867,-0.90134 0.012,-0.36 0.08,-0.864 0.204,-1.51066 l 4.86534,-28.08134 c 0.10133,-0.65066 0.20533,-1.148 0.316,-1.49066 0.11066,-0.34267 0.31066,-0.59067 0.60266,-0.74267 0.292,-0.15067 0.76,-0.26667 1.40534,-0.34533 0.372,-0.0453 0.68666,-0.17067 0.94133,-0.37467 0.25467,-0.204 0.41733,-0.49333 0.488,-0.868 0.0587,-0.38667 0.0187,-0.70667 -0.12,-0.96267 -0.14,-0.256 -0.32133,-0.45866 -0.54533,-0.608 -0.22534,-0.14933 -0.43734,-0.25733 -0.636,-0.324 -0.2,-0.0653 -0.33067,-0.10266 -0.39334,-0.10933 l -14.148,-2.452 z m -21.01866,-37.03733 c -0.0493,0.32 -0.0147,0.588 0.104,0.80266 0.11866,0.21467 0.284,0.38934 0.49466,0.52267 0.21067,0.13333 0.428,0.23733 0.65467,0.31333 0.22533,0.0747 0.42133,0.132 0.58533,0.17067 0.29467,0.072 0.51867,0.192 0.67467,0.35867 0.15467,0.16666 0.27867,0.37066 0.372,0.612 0.0933,0.24133 0.19333,0.51066 0.30133,0.80933 0.15067,0.38667 0.26667,0.788 0.35067,1.20533 0.0827,0.41734 0.15467,0.83867 0.21467,1.26534 l 5.45333,35.11333 1.55467,0.26933 10.752,-21.59733 1.68933,-9.75333 -0.10667,-0.0187 -3.952,8.47867 -0.108,-0.0187 -2.884,-17.44667 -13.612,-2.35733 c -0.16666,-0.0333 -0.376,-0.0613 -0.628,-0.0827 -0.252,-0.0213 -0.50933,-0.004 -0.77466,0.0533 -0.26534,0.056 -0.50134,0.18533 -0.70934,0.38533 -0.20666,0.2 -0.34933,0.50533 -0.42666,0.91467 z m 55.744,15.67466 -0.16134,-0.028 -10.50666,22.412 c -0.56267,1.19734 -1.11467,2.13867 -1.65734,2.82267 -0.54266,0.68533 -1.06,1.19067 -1.552,1.516 -0.49333,0.32533 -0.94533,0.548 -1.356,0.66667 -0.42933,0.116 -0.81066,0.204 -1.144,0.264 -0.33333,0.0613 -0.608,0.17066 -0.824,0.332 -0.216,0.16 -0.36266,0.448 -0.43866,0.864 -0.0587,0.38666 -0.005,0.70666 0.16133,0.96266 0.16667,0.25467 0.4,0.46 0.69733,0.61467 0.29867,0.15467 0.61467,0.27467 0.94934,0.35867 0.33333,0.084 0.63866,0.148 0.91466,0.192 l 6.16267,1.068 c 0.27333,0.0507 0.57067,0.0973 0.89067,0.13866 0.32,0.04 0.63066,0.044 0.932,0.0107 0.30266,-0.032 0.56266,-0.13467 0.78133,-0.304 0.21867,-0.16933 0.36267,-0.44 0.43333,-0.80933 0.0573,-0.35334 0.0307,-0.65067 -0.0787,-0.89067 -0.10934,-0.24133 -0.27334,-0.452 -0.492,-0.632 -0.21734,-0.18 -0.46134,-0.35467 -0.73067,-0.52533 -0.42267,-0.27334 -0.77067,-0.56 -1.04267,-0.85867 -0.27333,-0.29733 -0.45466,-0.64133 -0.548,-1.03067 -0.092,-0.39066 -0.0813,-0.85866 0.0347,-1.40666 0.116,-0.54934 0.35067,-1.21067 0.704,-1.98534 l 8.21333,-17.45466 z m 3.64,27.73334 c 0.032,0.53866 0.0333,0.97733 10e-4,1.31866 -0.0307,0.34134 -0.10667,0.61467 -0.22667,0.82267 -0.12133,0.208 -0.30133,0.38133 -0.53866,0.52133 -0.23734,0.14 -0.54667,0.27734 -0.928,0.412 -0.252,0.08 -0.46534,0.16934 -0.63734,0.26534 -0.17066,0.0973 -0.30933,0.228 -0.412,0.39066 -0.104,0.164 -0.18,0.38667 -0.22933,0.668 -0.0667,0.46 0.0227,0.82134 0.268,1.08534 0.24533,0.264 0.564,0.46133 0.95467,0.59066 0.392,0.12934 0.77333,0.22267 1.144,0.28 l 13.34533,2.312 c 0.26133,0.0493 0.55867,0.096 0.892,0.14 0.33467,0.044 0.664,0.0533 0.99067,0.0267 0.32533,-0.0253 0.608,-0.11733 0.84533,-0.276 0.23733,-0.16 0.392,-0.41733 0.46133,-0.77333 0.072,-0.47334 0.004,-0.85334 -0.204,-1.14 -0.20666,-0.28667 -0.49066,-0.53734 -0.848,-0.75334 -0.45333,-0.29866 -0.76933,-0.61866 -0.948,-0.96 -0.18,-0.34133 -0.28533,-0.71866 -0.31733,-1.132 -0.032,-0.41466 -0.0533,-0.87866 -0.0627,-1.396 l -2.172,-35.26133 -11.844,-2.052 -1.19866,2.77333 1.30933,24.62534 -6.53867,-1.13334 -1.288,2.97734 7.824,1.356 z m 36.932,-21.036 c 0.10533,-0.65467 0.28133,-1.296 0.52933,-1.92267 0.248,-0.62533 0.60267,-1.16667 1.06533,-1.62 0.464,-0.45467 1.07067,-0.75067 1.82267,-0.888 l 0.53867,-3.108 c -1.88134,-0.27333 -3.712,-0.19733 -5.496,0.22667 -1.78267,0.424 -3.468,1.15066 -5.05467,2.18133 -1.588,1.03067 -3.02667,2.31867 -4.32,3.86667 -1.292,1.54666 -2.388,3.308 -3.28667,5.28266 -0.9,1.97467 -1.55333,4.11734 -1.96,6.42934 -0.392,2.304 -0.49733,4.53333 -0.31333,6.68933 0.184,2.156 0.624,4.17867 1.32133,6.068 0.696,1.89067 1.61867,3.588 2.76667,5.09467 1.14667,1.50666 2.48933,2.76266 4.024,3.768 1.536,1.00533 3.23467,1.70133 5.09467,2.088 l 0.53866,-3.108 c -0.66133,-0.384 -1.13333,-0.872 -1.41466,-1.464 -0.28267,-0.592 -0.43334,-1.228 -0.45467,-1.91067 -0.02,-0.68133 0.0293,-1.34933 0.15067,-2.00133 z m 5.82933,-4.01334 c 1.08133,0.24134 2.096,0.672 3.044,1.292 0.94667,0.61867 1.792,1.43067 2.53467,2.43467 0.74266,1.00267 1.348,2.20133 1.816,3.59333 0.468,1.39334 0.764,2.98267 0.888,4.76934 0.0187,0.39466 0.0693,0.76666 0.15466,1.11466 0.0853,0.34667 0.244,0.64267 0.476,0.888 0.232,0.244 0.57734,0.408 1.03467,0.49334 0.412,0.064 0.748,0.0307 1.00667,-0.0973 0.25733,-0.128 0.45733,-0.3 0.59733,-0.51466 0.13867,-0.21467 0.23733,-0.42134 0.29333,-0.61867 0.0573,-0.19867 0.0893,-0.33467 0.0987,-0.41067 l 2.07066,-11.95066 c 0.0173,-0.0733 0.036,-0.2 0.0573,-0.38267 0.0213,-0.18133 0.008,-0.38267 -0.0387,-0.60133 -0.048,-0.21867 -0.164,-0.41867 -0.34933,-0.60267 -0.18667,-0.18267 -0.47734,-0.312 -0.87334,-0.388 -0.42133,-0.0627 -0.76933,-0.016 -1.04533,0.13867 -0.276,0.15333 -0.524,0.344 -0.748,0.572 -0.22266,0.22666 -0.46533,0.41866 -0.72666,0.576 -0.26267,0.156 -0.59067,0.20533 -0.98534,0.148 -0.14533,-0.032 -0.424,-0.164 -0.83866,-0.39467 -0.41467,-0.23067 -0.976,-0.524 -1.68667,-0.87733 -0.71067,-0.35467 -1.58267,-0.732 -2.616,-1.132 -1.03333,-0.4 -2.24133,-0.78667 -3.62533,-1.15734 z m -6.68533,38.58667 c 1.71066,0.25333 3.42133,0.28533 5.13333,0.096 1.712,-0.18933 3.38,-0.57333 5.00667,-1.152 1.62533,-0.57867 3.164,-1.324 4.61733,-2.23733 l 1.83867,-10.612 c 0.007,-0.0933 0.028,-0.22 0.0653,-0.38134 0.0373,-0.16133 0.14133,-0.336 0.312,-0.52266 0.17067,-0.18667 0.45867,-0.36667 0.86533,-0.53734 0.27734,-0.10666 0.532,-0.26266 0.764,-0.468 0.232,-0.204 0.392,-0.528 0.48,-0.972 0.068,-0.43866 0.04,-0.78533 -0.0827,-1.04133 -0.124,-0.25733 -0.29067,-0.44667 -0.50134,-0.57067 -0.21066,-0.124 -0.41333,-0.20666 -0.608,-0.248 -0.19466,-0.0413 -0.33066,-0.0653 -0.40533,-0.0733 l -12.808,-2.21867 c -0.076,-0.0173 -0.22667,-0.032 -0.45333,-0.0467 -0.228,-0.0147 -0.47867,0.003 -0.756,0.0507 -0.276,0.0493 -0.52667,0.16 -0.752,0.332 -0.224,0.172 -0.372,0.436 -0.44267,0.79334 -0.0747,0.45333 -0.0107,0.82933 0.19067,1.13066 0.2,0.3 0.50933,0.54 0.924,0.71867 0.68133,0.24 1.16666,0.45333 1.45733,0.64133 0.28933,0.18667 0.45333,0.39734 0.48933,0.632 0.036,0.23467 0.0147,0.54534 -0.0653,0.92934 l -1.67067,9.64666 c -0.0347,0.23467 -0.1,0.50534 -0.196,0.81334 -0.096,0.308 -0.25066,0.616 -0.464,0.92266 -0.212,0.30667 -0.512,0.57467 -0.89866,0.804 -0.38534,0.23067 -0.88667,0.38534 -1.50134,0.46267 z m 25.93066,-35.91467 c -0.0587,0.376 -0.003,0.70267 0.168,0.98134 0.172,0.27866 0.42533,0.50133 0.76,0.66933 0.58133,0.29067 0.984,0.55733 1.208,0.79867 0.22267,0.24133 0.32933,0.54133 0.31733,0.90133 -0.0107,0.36 -0.0787,0.86267 -0.204,1.51067 l -4.86533,28.08266 c -0.1,0.652 -0.20533,1.148 -0.316,1.49067 -0.10933,0.344 -0.31067,0.59067 -0.60267,0.74267 -0.292,0.152 -0.76,0.26666 -1.40533,0.34533 -0.372,0.0453 -0.68533,0.17067 -0.94133,0.37467 -0.25467,0.204 -0.41734,0.49333 -0.488,0.868 -0.0587,0.38533 -0.0173,0.70666 0.12133,0.96266 0.13867,0.256 0.32,0.45867 0.54533,0.608 0.224,0.14934 0.436,0.256 0.636,0.32267 0.19867,0.0667 0.32934,0.10267 0.392,0.11067 l 14.148,2.45066 6.94534,-40.08533 -14.148,-2.452 c -0.0613,-0.0133 -0.19734,-0.024 -0.40667,-0.028 -0.21067,-0.004 -0.44667,0.0253 -0.708,0.0907 -0.26133,0.064 -0.50133,0.19466 -0.71733,0.388 -0.21734,0.19466 -0.36267,0.484 -0.43867,0.86666 z m 18.292,4.66 c 1.52533,0.52267 2.80533,1.21467 3.84267,2.076 1.036,0.86134 1.85333,1.88934 2.452,3.08667 0.59733,1.196 1.00133,2.55867 1.21066,4.08667 0.0387,0.284 0.096,0.536 0.17067,0.75466 0.0733,0.21867 0.192,0.4 0.35333,0.54134 0.16134,0.14266 0.392,0.24 0.69067,0.29466 0.52933,0.08 0.92667,0.0547 1.19333,-0.076 0.26667,-0.13066 0.44667,-0.292 0.53867,-0.48266 0.0933,-0.192 0.144,-0.33867 0.152,-0.44 l 1.88533,-10.87867 -11.95066,-2.07067 z m -6.40533,36.97867 12.32533,2.13467 1.856,-10.71734 c 0.016,-0.06 0.0373,-0.18533 0.064,-0.376 0.0253,-0.18933 0.0173,-0.40266 -0.0253,-0.63866 -0.044,-0.236 -0.16134,-0.45467 -0.35467,-0.65467 -0.19333,-0.2 -0.5,-0.34133 -0.92267,-0.42267 -0.31733,-0.0493 -0.59066,-0.009 -0.81866,0.11867 -0.22934,0.12667 -0.432,0.30533 -0.61067,0.53333 -0.17733,0.22934 -0.35067,0.46934 -0.51867,0.72267 -0.73733,1.35067 -1.636,2.5 -2.7,3.44667 -1.06266,0.948 -2.24933,1.65866 -3.56266,2.13333 -1.312,0.47467 -2.71067,0.67867 -4.19467,0.612 z m 3.268,-18.864 c 0.70933,0.33467 1.272,0.78667 1.68666,1.35467 0.41334,0.568 0.716,1.2 0.90667,1.89466 0.18933,0.696 0.30267,1.40134 0.34,2.116 0.0307,0.324 0.0853,0.62934 0.164,0.91867 0.0787,0.288 0.21333,0.53467 0.404,0.73733 0.19067,0.204 0.47067,0.34134 0.84,0.41067 0.412,0.0613 0.736,0.012 0.972,-0.14933 0.23733,-0.16134 0.412,-0.37467 0.524,-0.64134 0.11333,-0.26533 0.188,-0.524 0.22667,-0.77466 0.0387,-0.25067 0.0653,-0.43467 0.08,-0.552 l 2.00533,-11.576 c 0.0253,-0.116 0.0627,-0.29734 0.11067,-0.54667 0.048,-0.24933 0.064,-0.51867 0.048,-0.80667 -0.0173,-0.288 -0.10934,-0.548 -0.27867,-0.77866 -0.168,-0.232 -0.45733,-0.388 -0.86533,-0.468 -0.37067,-0.0587 -0.68134,-0.0253 -0.92934,0.10266 -0.248,0.128 -0.45733,0.31467 -0.628,0.56 -0.17066,0.24534 -0.32533,0.51467 -0.46266,0.80934 -0.276,0.66133 -0.62,1.28666 -1.03334,1.87733 -0.41333,0.59067 -0.90933,1.084 -1.49066,1.48 -0.58134,0.396 -1.26267,0.632 -2.04534,0.70933 z m -136.74533,36.83733 c -0.33867,1.08134 -0.69867,1.93867 -1.07867,2.572 -0.38133,0.63334 -0.764,1.10934 -1.152,1.428 -0.38667,0.31734 -0.76,0.544 -1.11867,0.67734 -0.36,0.13466 -0.688,0.24266 -0.98533,0.32533 -0.296,0.0827 -0.54533,0.204 -0.74533,0.36533 -0.20134,0.16267 -0.336,0.42934 -0.40534,0.80267 -0.0613,0.412 0.001,0.748 0.18934,1.00533 0.18666,0.25734 0.43466,0.45734 0.74,0.59867 0.30666,0.14133 0.60933,0.24267 0.90533,0.30533 0.29733,0.0627 0.52533,0.10534 0.68267,0.128 l 6.10933,1.05867 c 0.156,0.032 0.38533,0.068 0.68533,0.10933 0.30134,0.04 0.62,0.0453 0.956,0.016 0.336,-0.0293 0.636,-0.13466 0.89867,-0.31466 0.26267,-0.18 0.43467,-0.47334 0.516,-0.88267 0.06,-0.37467 0.0227,-0.672 -0.11067,-0.892 -0.13466,-0.21867 -0.328,-0.41733 -0.58,-0.59467 -0.252,-0.17733 -0.52533,-0.39066 -0.81866,-0.63733 -0.292,-0.248 -0.568,-0.58533 -0.82534,-1.016 -0.25733,-0.42933 -0.45866,-1.00667 -0.604,-1.73067 -0.14533,-0.72533 -0.19466,-1.65333 -0.15066,-2.78533 l 2.804,-16.184 -2.072,-5.88 -0.108,-0.0173 z m 27.292,-10.00933 2.06266,5.932 0.108,0.0187 2.256,-13.02267 c 0.22534,-1.26533 0.51334,-2.276 0.86,-3.032 0.348,-0.75733 0.72667,-1.332 1.13734,-1.72667 0.41066,-0.39333 0.824,-0.67866 1.23866,-0.856 0.41467,-0.176 0.80267,-0.31733 1.16267,-0.42266 0.36,-0.10534 0.66533,-0.24667 0.912,-0.42667 0.248,-0.17867 0.40933,-0.468 0.48533,-0.86667 0.0573,-0.37333 0.0133,-0.684 -0.13066,-0.93333 -0.14534,-0.24933 -0.33867,-0.448 -0.584,-0.59733 -0.244,-0.14934 -0.488,-0.26134 -0.732,-0.33467 -0.244,-0.0733 -0.436,-0.12 -0.57867,-0.14133 l -7.288,-1.26267 c -0.14133,-0.028 -0.33867,-0.048 -0.59333,-0.0613 -0.25467,-0.0133 -0.52134,0.009 -0.80134,0.068 -0.28133,0.0587 -0.53066,0.18 -0.75066,0.36666 -0.22,0.18667 -0.36534,0.464 -0.43734,0.83467 -0.0627,0.40133 -0.008,0.728 0.16534,0.98 0.17333,0.252 0.41066,0.488 0.71466,0.708 0.30534,0.22 0.62267,0.484 0.95334,0.78933 0.332,0.30667 0.624,0.71334 0.87866,1.22267 0.25334,0.50933 0.41734,1.17867 0.48934,2.008 0.0733,0.82933 0.004,1.87867 -0.20934,3.14533 z m -9.488,-19.47333 -13.77334,-2.38667 c -0.288,-0.04 -0.592,-0.0733 -0.91066,-0.1 -0.32,-0.0253 -0.62667,-0.0133 -0.92,0.0387 -0.29467,0.0507 -0.548,0.17333 -0.76,0.36533 -0.212,0.19333 -0.356,0.488 -0.43067,0.884 -0.064,0.38667 -0.044,0.69867 0.06,0.93467 0.10267,0.236 0.26533,0.43333 0.48533,0.59066 0.22134,0.15867 0.47734,0.31467 0.76534,0.468 0.412,0.22267 0.74266,0.448 0.99333,0.67734 0.25067,0.22933 0.452,0.47466 0.604,0.73866 0.15333,0.26267 0.288,0.556 0.404,0.87867 0.11733,0.324 0.248,0.69067 0.392,1.10133 l 13.756,37.21334 7.984,1.384 2.248,-12.96934 z m 39.852,6.076 c -2.308,-0.18134 -4.428,-0.0213 -6.36134,0.48 -1.93333,0.5 -3.676,1.28666 -5.228,2.36 -1.552,1.07333 -2.91066,2.38 -4.076,3.91733 -1.164,1.53867 -2.132,3.25467 -2.90133,5.148 -0.77067,1.89467 -1.34133,3.912 -1.712,6.05467 -0.372,2.14133 -0.51333,4.23333 -0.42533,6.27733 0.0893,2.04267 0.42266,3.984 1.00133,5.824 0.58,1.84 1.42,3.52667 2.52,5.06 1.10133,1.532 2.47733,2.86 4.12933,3.98133 1.652,1.12134 3.596,1.98534 5.83067,2.592 l 0.53867,-3.108 c -0.58534,-0.33866 -1.036,-0.692 -1.352,-1.05733 -0.316,-0.36667 -0.53467,-0.73733 -0.65334,-1.112 -0.12,-0.376 -0.17466,-0.74533 -0.168,-1.11067 0.008,-0.36533 0.044,-0.716 0.108,-1.05333 l 4.80934,-27.76 c 0.0533,-0.33733 0.13733,-0.68 0.25333,-1.02667 0.11467,-0.34666 0.292,-0.676 0.53067,-0.98933 0.23866,-0.31333 0.568,-0.58933 0.98933,-0.828 0.42133,-0.23867 0.964,-0.41867 1.628,-0.54 z m -4.81067,42.112 c 2.308,0.18133 4.428,0.0213 6.36133,-0.47867 1.93334,-0.5 3.676,-1.288 5.228,-2.36133 1.552,-1.07334 2.91067,-2.37867 4.076,-3.91734 1.164,-1.53733 2.13067,-3.25333 2.90134,-5.148 0.77066,-1.89333 1.34133,-3.912 1.71066,-6.05333 0.37334,-2.14267 0.51467,-4.23467 0.42667,-6.27733 -0.0893,-2.04267 -0.42267,-3.984 -1.00133,-5.824 -0.58,-1.84134 -1.42,-3.528 -2.52,-5.06 -1.10134,-1.53334 -2.47734,-2.86 -4.12934,-3.98267 -1.652,-1.12133 -3.596,-1.98533 -5.83066,-2.59067 l -0.53867,3.108 c 0.58533,0.33867 1.036,0.69067 1.352,1.05734 0.316,0.36533 0.53467,0.736 0.65333,1.112 0.12,0.37466 0.17467,0.74533 0.168,1.11066 -0.008,0.36534 -0.044,0.716 -0.108,1.052 l -4.80933,27.76 c -0.0533,0.33867 -0.13733,0.68134 -0.25333,1.028 -0.11467,0.34667 -0.292,0.676 -0.53067,0.98934 -0.23867,0.31333 -0.568,0.58933 -0.98933,0.82666 -0.42134,0.23867 -0.964,0.41867 -1.628,0.54134 z m 30.33467,-1.75467 c -0.1,0.65067 -0.20534,1.148 -0.316,1.49067 -0.10934,0.34266 -0.31067,0.59066 -0.60267,0.74266 -0.292,0.15067 -0.76,0.26667 -1.40533,0.34534 -0.37334,0.0453 -0.68667,0.17066 -0.94134,0.37466 -0.256,0.204 -0.41866,0.49333 -0.48933,0.868 -0.0573,0.38667 -0.0173,0.70667 0.12133,0.96267 0.13867,0.256 0.32134,0.45866 0.54534,0.608 0.22533,0.14933 0.43733,0.25733 0.636,0.324 0.2,0.0653 0.33066,0.10266 0.39333,0.10933 l 15.16667,2.628 c 0.0613,0.0147 0.19733,0.024 0.408,0.028 0.20933,0.005 0.44533,-0.0253 0.70666,-0.0907 0.26267,-0.064 0.50134,-0.19333 0.71867,-0.388 0.216,-0.19466 0.36267,-0.484 0.43733,-0.86666 0.06,-0.376 0.004,-0.704 -0.168,-0.98134 -0.17066,-0.27866 -0.424,-0.50133 -0.76,-0.67066 -0.58133,-0.29067 -0.984,-0.556 -1.208,-0.79734 -0.22266,-0.24133 -0.32933,-0.54266 -0.31733,-0.90133 0.0107,-0.36 0.0787,-0.864 0.204,-1.51066 l 5.90533,-34.084 -13.12933,-2.27467 z m 29.16266,-30.05467 -7.716,-1.33733 -0.53866,3.108 c 0.60533,0.62133 1.084,1.30267 1.43466,2.044 0.35067,0.74133 0.60667,1.512 0.77067,2.312 0.164,0.80133 0.268,1.6 0.312,2.39867 0.044,0.79866 0.0613,1.56666 0.0533,2.30266 -0.0227,0.41067 -0.012,0.82134 0.032,1.232 0.044,0.41067 0.17467,0.768 0.39067,1.07334 0.216,0.30533 0.56933,0.50533 1.06133,0.60133 0.4,0.0627 0.72934,0.0467 0.99067,-0.048 0.26133,-0.0947 0.46667,-0.22533 0.61733,-0.392 0.14934,-0.16667 0.256,-0.328 0.32134,-0.484 0.0653,-0.156 0.10133,-0.264 0.108,-0.324 z m -35.54933,6.70134 c -0.0147,0.06 -0.0173,0.17333 -0.008,0.34266 0.009,0.168 0.056,0.356 0.14,0.564 0.0853,0.208 0.23467,0.4 0.44933,0.576 0.21334,0.17734 0.52,0.30267 0.91734,0.37867 0.49466,0.0747 0.89466,0.005 1.20133,-0.20933 0.30533,-0.21467 0.54933,-0.508 0.72933,-0.88 0.18,-0.37067 0.328,-0.75467 0.444,-1.14934 0.24,-0.696 0.51467,-1.412 0.82534,-2.14933 0.30933,-0.73733 0.67733,-1.45467 1.1,-2.15333 0.42266,-0.69867 0.92533,-1.33867 1.504,-1.91867 0.58,-0.58 1.25866,-1.06133 2.03866,-1.44267 l 0.53734,-3.108 -7.716,-1.336 z m -170.84266,15.08933 -0.16134,-0.028 -10.50666,22.41333 c -0.56134,1.196 -1.11467,2.13733 -1.65734,2.82133 -0.54133,0.68534 -1.06,1.19067 -1.552,1.516 -0.492,0.32667 -0.94533,0.548 -1.356,0.66667 -0.42933,0.116 -0.81066,0.204 -1.144,0.264 -0.33333,0.0613 -0.608,0.172 -0.824,0.332 -0.216,0.16 -0.36133,0.44933 -0.43733,0.864 -0.06,0.38667 -0.007,0.70667 0.16,0.96267 0.16667,0.25466 0.4,0.46 0.69733,0.61466 0.29867,0.15467 0.61467,0.27467 0.94934,0.35867 0.33466,0.084 0.63866,0.148 0.91466,0.192 l 6.16267,1.068 c 0.27333,0.052 0.57067,0.0973 0.89067,0.13867 0.32,0.0413 0.63066,0.044 0.93333,0.012 0.30133,-0.0333 0.56133,-0.13467 0.78,-0.30534 0.21867,-0.16933 0.364,-0.44 0.43333,-0.80933 0.0573,-0.35333 0.0307,-0.65067 -0.0787,-0.89067 -0.10934,-0.24133 -0.27334,-0.452 -0.492,-0.632 -0.21734,-0.18 -0.46134,-0.35466 -0.73067,-0.52533 -0.42267,-0.27333 -0.77067,-0.56 -1.04267,-0.85867 -0.272,-0.29733 -0.45466,-0.64133 -0.548,-1.03066 -0.092,-0.38934 -0.0813,-0.85867 0.0347,-1.40667 0.116,-0.54933 0.35067,-1.21067 0.70533,-1.984 l 8.21334,-17.456 z m 3.64,27.73466 c 0.032,0.53734 0.0333,0.97734 0.003,1.31734 -0.032,0.34133 -0.108,0.616 -0.228,0.824 -0.12133,0.20666 -0.30133,0.38133 -0.53866,0.52 -0.23734,0.14 -0.54667,0.27733 -0.928,0.412 -0.252,0.0813 -0.46534,0.16933 -0.636,0.26666 -0.172,0.096 -0.31067,0.22667 -0.41334,0.38934 -0.104,0.164 -0.18,0.38666 -0.228,0.668 -0.0667,0.46 0.0227,0.82133 0.268,1.08533 0.24534,0.264 0.56267,0.46133 0.95467,0.59067 0.39067,0.12933 0.772,0.22266 1.14267,0.28 l 13.34533,2.312 c 0.26133,0.0493 0.55867,0.096 0.892,0.14 0.33467,0.044 0.664,0.0533 0.99067,0.028 0.32533,-0.0267 0.608,-0.11867 0.84533,-0.27734 0.23867,-0.15866 0.392,-0.41733 0.46133,-0.77333 0.072,-0.47333 0.005,-0.852 -0.20266,-1.13867 -0.208,-0.28666 -0.492,-0.53866 -0.84934,-0.75466 -0.45333,-0.29867 -0.76933,-0.61867 -0.948,-0.96 -0.18,-0.34134 -0.28533,-0.71867 -0.31733,-1.132 -0.032,-0.41334 -0.0533,-0.87867 -0.0627,-1.39467 l -2.172,-35.26266 -11.844,-2.052 -1.19733,2.77333 1.308,24.62533 -6.53867,-1.13333 -1.288,2.97866 7.82534,1.35467 z m 40.456,2.868 -2.616,-24.40933 c -0.0173,-0.21866 -0.032,-0.40933 -0.0453,-0.57066 -0.0133,-0.16 -0.0187,-0.32 -0.0133,-0.47867 0.004,-0.15733 0.024,-0.34133 0.06,-0.55067 0.0813,-0.43066 0.22,-0.748 0.41733,-0.952 0.19734,-0.204 0.424,-0.35066 0.67867,-0.44 0.256,-0.0893 0.51067,-0.176 0.764,-0.26133 0.25467,-0.0853 0.48,-0.22267 0.67467,-0.41467 0.19466,-0.19066 0.332,-0.49066 0.40933,-0.9 0.072,-0.47733 -0.007,-0.85733 -0.23733,-1.13866 -0.22934,-0.28134 -0.54267,-0.49334 -0.93867,-0.63867 -0.396,-0.144 -0.80667,-0.25067 -1.23333,-0.31733 -0.42534,-0.0667 -0.79867,-0.124 -1.11734,-0.172 l -11.73733,-2.03334 c -0.31467,-0.06 -0.67067,-0.116 -1.06667,-0.16533 -0.396,-0.0507 -0.78666,-0.0587 -1.17066,-0.0227 -0.384,0.0347 -0.716,0.152 -0.996,0.34934 -0.28,0.19733 -0.46267,0.51333 -0.54667,0.94933 -0.06,0.37467 -0.016,0.704 0.132,0.98933 0.148,0.28534 0.372,0.536 0.67067,0.75067 0.32933,0.21733 0.57733,0.40533 0.74533,0.56267 0.168,0.15866 0.284,0.32133 0.34933,0.48933 0.064,0.168 0.10667,0.37733 0.128,0.62667 0.0213,0.25066 0.048,0.576 0.084,0.976 l 4.31867,36.24266 7.71733,1.33733 z m 1.77733,-3.88666 0.108,0.0187 7.388,-15.88666 c 0.26533,-0.592 0.56533,-1.16933 0.90133,-1.73467 0.336,-0.56533 0.72534,-1.1 1.16934,-1.60533 0.35066,-0.372 0.668,-0.66 0.952,-0.86267 0.28533,-0.204 0.59333,-0.36666 0.92533,-0.488 0.332,-0.12266 0.744,-0.24666 1.236,-0.37333 0.33067,-0.0813 0.63067,-0.16267 0.90267,-0.24267 0.27066,-0.0787 0.49866,-0.20933 0.68266,-0.39066 0.184,-0.18 0.312,-0.46267 0.38267,-0.84667 0.0653,-0.42533 0.0107,-0.76267 -0.16267,-1.016 -0.17466,-0.252 -0.42,-0.444 -0.73466,-0.576 -0.316,-0.13067 -0.65334,-0.22933 -1.012,-0.292 -0.35867,-0.0627 -0.69067,-0.11867 -0.99334,-0.16533 l -5.89466,-1.02134 c -0.288,-0.0533 -0.60667,-0.1 -0.956,-0.13866 -0.35067,-0.0387 -0.69334,-0.0347 -1.02934,0.009 -0.336,0.044 -0.62666,0.16267 -0.872,0.35733 -0.24533,0.19334 -0.40666,0.49467 -0.48533,0.90534 -0.0573,0.35333 -0.0293,0.64933 0.0813,0.888 0.112,0.24 0.28134,0.44666 0.508,0.62 0.228,0.17333 0.48534,0.33866 0.77467,0.49466 0.65333,0.35734 1.10533,0.80134 1.35733,1.332 0.25067,0.52934 0.30934,1.168 0.17867,1.91467 -0.052,0.296 -0.108,0.54667 -0.16933,0.74933 -0.0613,0.20267 -0.13734,0.4 -0.22667,0.592 -0.0907,0.192 -0.204,0.42 -0.34133,0.68267 l -5.21334,11.296 z m 21.42933,-15.05467 -0.16133,-0.028 -10.50667,22.412 c -0.56133,1.196 -1.11333,2.13733 -1.656,2.82267 -0.54266,0.684 -1.06,1.18933 -1.55333,1.516 -0.492,0.32533 -0.944,0.54666 -1.356,0.66666 -0.42933,0.11467 -0.81067,0.20267 -1.144,0.264 -0.33333,0.06 -0.608,0.17067 -0.824,0.33067 -0.216,0.16133 -0.36133,0.44933 -0.43733,0.86533 -0.06,0.38534 -0.005,0.70667 0.16133,0.96134 0.16667,0.256 0.39867,0.46 0.69733,0.61466 0.29734,0.15467 0.61334,0.27467 0.948,0.35867 0.33467,0.084 0.64,0.14933 0.916,0.192 l 6.16134,1.068 c 0.27466,0.052 0.57066,0.0987 0.89066,0.13867 0.32,0.0413 0.632,0.0453 0.93334,0.012 0.30133,-0.0333 0.56266,-0.13467 0.78133,-0.30534 0.21733,-0.16933 0.36267,-0.44 0.43333,-0.80933 0.056,-0.35333 0.0307,-0.64933 -0.0787,-0.89067 -0.11067,-0.24133 -0.27334,-0.45066 -0.492,-0.63066 -0.21867,-0.18 -0.46267,-0.356 -0.73067,-0.52534 -0.424,-0.27466 -0.772,-0.56133 -1.044,-0.85866 -0.272,-0.29867 -0.45467,-0.64267 -0.54667,-1.032 -0.0933,-0.38934 -0.0813,-0.85867 0.0347,-1.40667 0.116,-0.548 0.35067,-1.20933 0.704,-1.984 l 8.21333,-17.45467 z m 3.64134,27.73333 c 0.032,0.53734 0.032,0.97734 10e-4,1.31734 -0.0307,0.34133 -0.10667,0.616 -0.228,0.824 -0.12133,0.208 -0.3,0.38133 -0.53733,0.52 -0.23867,0.14 -0.548,0.27733 -0.928,0.412 -0.25334,0.0813 -0.46534,0.16933 -0.63734,0.26666 -0.172,0.096 -0.30933,0.22667 -0.41333,0.39067 -0.104,0.16267 -0.18,0.38533 -0.228,0.668 -0.0667,0.45867 0.0227,0.82 0.268,1.084 0.24533,0.264 0.564,0.46133 0.95467,0.59067 0.39066,0.13066 0.772,0.224 1.144,0.28 l 13.34399,2.312 c 0.26134,0.0493 0.55867,0.096 0.89334,0.14 0.33333,0.044 0.664,0.0533 0.98933,0.028 0.32667,-0.0253 0.608,-0.11867 0.84533,-0.27734 0.23867,-0.15866 0.392,-0.416 0.46134,-0.77333 0.0733,-0.472 0.005,-0.852 -0.20267,-1.13867 -0.208,-0.28666 -0.49067,-0.53866 -0.84933,-0.75466 -0.452,-0.29867 -0.768,-0.61867 -0.948,-0.96 -0.18,-0.34 -0.28534,-0.71867 -0.31734,-1.132 -0.032,-0.41334 -0.052,-0.87867 -0.0627,-1.39467 l -2.17067,-35.26266 -11.84533,-2.052 -1.19733,2.77333 1.30933,24.62533 -6.53867,-1.132 -1.28933,2.97733 7.82533,1.356 z m 40.56533,-21.62 c 0.1,-0.652 0.20533,-1.14933 0.316,-1.492 0.10933,-0.34266 0.31066,-0.58933 0.60266,-0.74133 0.292,-0.152 0.76,-0.26667 1.40534,-0.34533 0.372,-0.0453 0.68533,-0.17067 0.94133,-0.37467 0.25467,-0.20533 0.41733,-0.49467 0.488,-0.868 0.0573,-0.38667 0.0173,-0.708 -0.12133,-0.964 -0.13867,-0.256 -0.32,-0.45867 -0.54534,-0.608 -0.224,-0.14933 -0.436,-0.256 -0.636,-0.32267 -0.19866,-0.0667 -0.32933,-0.10266 -0.392,-0.11066 l -15.16666,-2.628 c -0.0613,-0.0133 -0.19734,-0.0227 -0.40667,-0.028 -0.21067,-0.004 -0.44667,0.0253 -0.708,0.0907 -0.26133,0.0653 -0.50133,0.19466 -0.71733,0.38933 -0.21734,0.19467 -0.36267,0.48267 -0.43867,0.86667 -0.06,0.376 -0.003,0.70266 0.168,0.98133 0.172,0.27733 0.42533,0.50133 0.76,0.66933 0.58133,0.29067 0.984,0.55733 1.208,0.79867 0.22267,0.24133 0.32933,0.54133 0.31733,0.90133 -0.0107,0.36 -0.08,0.86267 -0.204,1.51067 l -4.86533,28.08133 c -0.1,0.65067 -0.20533,1.148 -0.316,1.49067 -0.10933,0.34266 -0.31067,0.59066 -0.60267,0.74133 -0.292,0.152 -0.76,0.268 -1.40533,0.34667 -0.372,0.0453 -0.68533,0.17066 -0.94133,0.37466 -0.25467,0.204 -0.41734,0.49334 -0.488,0.868 -0.0573,0.38534 -0.0173,0.70667 0.12133,0.96267 0.13867,0.256 0.32,0.45867 0.54533,0.608 0.224,0.14933 0.436,0.25733 0.636,0.32267 0.19867,0.0667 0.32934,0.104 0.392,0.11066 l 15.16667,2.628 c 0.0613,0.0147 0.19733,0.024 0.40667,0.028 0.21066,0.004 0.44666,-0.0253 0.708,-0.0907 0.26133,-0.0653 0.50133,-0.19467 0.71733,-0.388 0.21733,-0.19467 0.36267,-0.484 0.43867,-0.868 0.0587,-0.376 0.003,-0.70267 -0.168,-0.98134 -0.172,-0.27733 -0.42534,-0.50133 -0.76,-0.66933 -0.58134,-0.29067 -0.984,-0.55733 -1.208,-0.79733 -0.22267,-0.24134 -0.32934,-0.54267 -0.31734,-0.90267 0.0107,-0.35867 0.0787,-0.86267 0.204,-1.50933 z m 23.688,4.104 c 0.10133,-0.652 0.20533,-1.14933 0.316,-1.492 0.11066,-0.34266 0.31066,-0.58933 0.60266,-0.74133 0.292,-0.152 0.76134,-0.26667 1.40667,-0.34533 0.372,-0.0453 0.68533,-0.17067 0.94133,-0.37467 0.25467,-0.20533 0.41734,-0.49333 0.488,-0.868 0.0587,-0.38667 0.0173,-0.708 -0.12133,-0.964 -0.13867,-0.256 -0.32,-0.45867 -0.54533,-0.608 -0.224,-0.14933 -0.436,-0.256 -0.636,-0.32267 -0.19867,-0.0667 -0.32934,-0.10266 -0.39334,-0.11066 l -15.16533,-2.628 c -0.0627,-0.0133 -0.19733,-0.0227 -0.408,-0.028 -0.20933,-0.004 -0.44533,0.0253 -0.70667,0.0907 -0.26266,0.0653 -0.50133,0.19467 -0.71866,0.38934 -0.216,0.19333 -0.36267,0.48266 -0.43734,0.86666 -0.06,0.376 -0.004,0.70267 0.168,0.98134 0.17067,0.27733 0.424,0.50133 0.76,0.66933 0.58134,0.29067 0.98267,0.55733 1.20667,0.79867 0.224,0.24133 0.32933,0.54133 0.31867,0.90133 -0.012,0.36 -0.08,0.86267 -0.20534,1.51067 l -4.86533,28.08133 c -0.1,0.652 -0.20533,1.14933 -0.31467,1.492 -0.11066,0.34267 -0.312,0.58933 -0.60266,0.74133 -0.292,0.152 -0.76,0.26667 -1.40534,0.34534 -0.37333,0.0467 -0.68666,0.17066 -0.94133,0.37466 -0.25467,0.20534 -0.41867,0.49334 -0.488,0.868 -0.0587,0.38667 -0.0187,0.708 0.12,0.96267 0.14,0.256 0.32133,0.45867 0.54533,0.608 0.22534,0.14933 0.43734,0.25733 0.636,0.32267 0.2,0.0667 0.33067,0.104 0.39334,0.11066 l 14.148,2.452 z m -3.492,34.50134 11.30666,1.95866 2.06134,-11.896 c 0.0667,-0.34533 0.0987,-0.676 0.0973,-0.99333 -0.003,-0.31733 -0.0827,-0.59067 -0.24133,-0.81867 -0.15867,-0.228 -0.43867,-0.38 -0.84267,-0.45733 -0.55867,-0.108 -1.02267,-0.0827 -1.39333,0.076 -0.36934,0.16 -0.67067,0.51733 -0.90267,1.072 -0.66267,1.60933 -1.452,3.01733 -2.372,4.22667 -0.92,1.208 -1.97467,2.14133 -3.16667,2.8 -1.19333,0.65866 -2.528,0.96666 -4.008,0.924 z m 28.79733,-28.572 -0.16,-0.028 -10.50667,22.412 c -0.56266,1.19733 -1.11466,2.13733 -1.65733,2.82266 -0.54267,0.68534 -1.06,1.19067 -1.552,1.516 -0.49333,0.32534 -0.94533,0.548 -1.35733,0.66667 -0.428,0.116 -0.80934,0.20267 -1.14267,0.264 -0.33333,0.06 -0.608,0.17067 -0.824,0.332 -0.216,0.16 -0.36267,0.448 -0.43867,0.864 -0.0587,0.38533 -0.005,0.70667 0.16134,0.96133 0.16666,0.256 0.39866,0.46134 0.69733,0.616 0.29733,0.15467 0.61467,0.27334 0.948,0.35867 0.33467,0.084 0.64,0.148 0.916,0.192 l 6.16267,1.06667 c 0.27333,0.052 0.56933,0.0987 0.89066,0.13866 0.32,0.0413 0.63067,0.0453 0.932,0.012 0.30267,-0.0333 0.56267,-0.13466 0.78134,-0.304 0.21866,-0.17066 0.36266,-0.44 0.43333,-0.81066 0.0573,-0.352 0.0307,-0.64934 -0.0787,-0.89067 -0.10933,-0.24 -0.27333,-0.45067 -0.492,-0.63067 -0.21866,-0.18 -0.46133,-0.35466 -0.73066,-0.52533 -0.42267,-0.27467 -0.77067,-0.56 -1.04267,-0.85867 -0.27333,-0.29866 -0.456,-0.64266 -0.548,-1.032 -0.0933,-0.38933 -0.0813,-0.85866 0.0347,-1.40666 0.116,-0.548 0.35066,-1.20934 0.704,-1.984 l 8.21333,-17.45467 z m 3.64133,27.73333 c 0.032,0.53867 0.0333,0.97733 10e-4,1.31867 -0.0307,0.34 -0.10667,0.61466 -0.228,0.82266 -0.12,0.208 -0.3,0.38134 -0.53734,0.52134 -0.23733,0.13866 -0.54666,0.276 -0.928,0.412 -0.25333,0.08 -0.46533,0.16933 -0.63733,0.26533 -0.172,0.0973 -0.30933,0.22667 -0.41333,0.39067 -0.10267,0.164 -0.17867,0.38666 -0.228,0.668 -0.0667,0.45866 0.0227,0.82133 0.268,1.08533 0.24533,0.264 0.564,0.46 0.95466,0.59067 0.392,0.12933 0.77334,0.22266 1.144,0.28 l 13.34534,2.312 c 0.26133,0.0493 0.55866,0.096 0.892,0.14 0.33333,0.0427 0.664,0.052 0.98933,0.0267 0.32667,-0.0253 0.608,-0.11733 0.84667,-0.27733 0.23733,-0.15867 0.39066,-0.416 0.46,-0.772 0.0733,-0.47333 0.005,-0.85333 -0.20267,-1.14 -0.208,-0.28667 -0.49067,-0.53867 -0.84933,-0.75467 -0.452,-0.29733 -0.768,-0.61733 -0.948,-0.95866 -0.17867,-0.34134 -0.284,-0.71867 -0.316,-1.13334 -0.032,-0.41333 -0.0533,-0.87866 -0.064,-1.39466 l -2.17067,-35.26267 -11.844,-2.052 -1.19867,2.77333 1.30934,24.62667 -6.53867,-1.13333 -1.288,2.97733 7.824,1.356 z m 40.96267,-27.73467 -14.416,-2.49733 c -0.0987,-0.02 -0.244,-0.0307 -0.43333,-0.032 -0.18934,-0.001 -0.392,0.0347 -0.608,0.10667 -0.21467,0.0733 -0.41067,0.21066 -0.588,0.412 -0.176,0.20133 -0.3,0.49333 -0.37334,0.87733 -0.0587,0.376 -0.003,0.70267 0.168,0.98133 0.172,0.27734 0.42534,0.50134 0.76,0.66934 0.58134,0.29066 0.984,0.55733 1.208,0.79866 0.224,0.24134 0.32934,0.54134 0.31734,0.90134 -0.0107,0.36 -0.0787,0.86266 -0.204,1.51066 l -4.86534,28.08267 c -0.1,0.65067 -0.20533,1.148 -0.316,1.49067 -0.10933,0.34266 -0.31066,0.59066 -0.60266,0.74266 -0.292,0.152 -0.76,0.26667 -1.40534,0.34534 -0.372,0.0453 -0.68533,0.17066 -0.94133,0.37466 -0.25467,0.204 -0.41733,0.49334 -0.488,0.868 -0.0613,0.38534 -0.0413,0.70267 0.0573,0.952 0.0973,0.248 0.236,0.444 0.41467,0.58534 0.17867,0.14 0.35733,0.24266 0.536,0.30533 0.17867,0.0627 0.31867,0.10133 0.41867,0.11467 l 14.416,2.49733 z m 1.87333,3.52534 c 1.04134,0.30266 1.816,0.73333 2.32133,1.29466 0.50667,0.56 0.816,1.19734 0.92667,1.91067 0.112,0.712 0.0973,1.44933 -0.0453,2.208 l -0.928,5.36 c -0.0773,0.50267 -0.19067,1.00267 -0.34,1.49733 -0.14933,0.49467 -0.38533,0.94 -0.71067,1.336 -0.324,0.39467 -0.78666,0.69334 -1.38933,0.896 -0.60267,0.204 -1.39467,0.264 -2.37867,0.18267 l -0.53866,3.108 c 0.84,0.22 1.49866,0.524 1.98,0.91333 0.48,0.38934 0.82133,0.84 1.02266,1.35334 0.20267,0.512 0.30534,1.064 0.30934,1.65333 0.004,0.58933 -0.0507,1.19467 -0.16534,1.81467 l -1.19733,6.91333 c -0.0773,0.48933 -0.20133,0.96133 -0.372,1.41467 -0.17067,0.45466 -0.42533,0.85466 -0.764,1.19733 -0.33867,0.344 -0.79733,0.59333 -1.37867,0.74933 -0.58133,0.15467 -1.32133,0.17867 -2.22,0.0693 l -0.53866,3.108 1.716,0.296 c 0.948,0.17066 1.876,0.33066 2.78133,0.47733 0.90533,0.148 1.80267,0.24933 2.692,0.30667 0.88933,0.056 1.784,0.0333 2.68533,-0.068 0.9,-0.10267 1.82,-0.31734 2.75867,-0.64534 1.84933,-0.652 3.32,-1.63866 4.41066,-2.96133 1.09067,-1.32267 1.8,-2.93733 2.13067,-4.848 0.28,-1.66933 0.25067,-3.15067 -0.0853,-4.44133 -0.33734,-1.292 -0.92134,-2.42134 -1.752,-3.39067 -0.832,-0.96933 -1.85067,-1.80533 -3.05467,-2.50933 -1.204,-0.70267 -2.53467,-1.30134 -3.98933,-1.796 l 0.0187,-0.10667 c 1.34534,0.0293 2.66,-0.0813 3.94534,-0.33067 1.28533,-0.24933 2.46933,-0.66933 3.55333,-1.26133 1.08533,-0.592 2,-1.388 2.74533,-2.38533 0.74534,-0.99867 1.25067,-2.232 1.51734,-3.70134 0.32,-1.90666 0.144,-3.62933 -0.52534,-5.16933 -0.66933,-1.54 -1.768,-2.87067 -3.296,-3.99333 -0.95333,-0.67067 -1.95866,-1.212 -3.016,-1.624 -1.05733,-0.41067 -2.144,-0.74134 -3.26133,-0.992 -1.116,-0.24934 -2.23867,-0.468 -3.368,-0.65467 l -1.66133,-0.288 z m 37.71067,9.516 c 0.1,-0.65067 0.20533,-1.148 0.316,-1.49067 0.11066,-0.34267 0.31066,-0.59067 0.60266,-0.74267 0.292,-0.152 0.76134,-0.26666 1.40534,-0.34533 0.37333,-0.0453 0.68666,-0.17067 0.94266,-0.37467 0.25467,-0.204 0.41734,-0.49333 0.488,-0.868 0.0573,-0.38666 0.0173,-0.708 -0.12133,-0.964 -0.13867,-0.256 -0.32,-0.45733 -0.54533,-0.60666 -0.224,-0.14934 -0.436,-0.25734 -0.636,-0.324 -0.19867,-0.0653 -0.33067,-0.10267 -0.39334,-0.11067 l -15.16533,-2.62667 c -0.0627,-0.0147 -0.19867,-0.024 -0.408,-0.028 -0.20933,-0.005 -0.44533,0.0253 -0.708,0.0893 -0.26133,0.0653 -0.5,0.19466 -0.71733,0.38933 -0.21734,0.19467 -0.36267,0.484 -0.43867,0.86667 -0.0587,0.376 -0.003,0.704 0.168,0.98133 0.172,0.27867 0.42533,0.50133 0.76133,0.67067 0.58,0.29066 0.98267,0.556 1.20667,0.79733 0.224,0.24133 0.32933,0.54133 0.31867,0.90133 -0.012,0.36 -0.08,0.864 -0.20534,1.51067 l -4.86533,28.08267 c -0.1,0.65066 -0.20533,1.148 -0.31467,1.49066 -0.11066,0.34267 -0.312,0.59067 -0.604,0.74267 -0.29066,0.15067 -0.76,0.26667 -1.404,0.34533 -0.37333,0.0453 -0.68666,0.17067 -0.94133,0.37467 -0.256,0.204 -0.41867,0.49333 -0.48933,0.86667 -0.0573,0.38666 -0.0173,0.708 0.12133,0.964 0.13867,0.256 0.32133,0.45866 0.54533,0.60666 0.22534,0.14934 0.436,0.25734 0.636,0.324 0.19867,0.0667 0.33067,0.10267 0.39334,0.11067 l 14.14666,2.45067 z m -3.492,34.50133 11.30666,1.96 2.06134,-11.89733 c 0.0667,-0.344 0.0987,-0.676 0.096,-0.99334 -0.001,-0.31733 -0.0813,-0.59066 -0.24,-0.81866 -0.15867,-0.228 -0.44,-0.38 -0.84267,-0.456 -0.55867,-0.10934 -1.02267,-0.084 -1.39333,0.076 -0.37067,0.15866 -0.67067,0.516 -0.90267,1.072 -0.66267,1.608 -1.45333,3.01733 -2.372,4.22533 -0.92,1.208 -1.976,2.14133 -3.168,2.8 -1.192,0.65867 -2.528,0.96667 -4.00667,0.92533 z m 19.94933,-36.12267 c -0.06,0.376 -0.004,0.704 0.168,0.98134 0.17067,0.27866 0.42533,0.50133 0.76,0.67066 0.58133,0.29067 0.984,0.556 1.20667,0.79734 0.224,0.24133 0.33066,0.54133 0.31866,0.90133 -0.012,0.36 -0.08,0.864 -0.204,1.51067 l -4.86533,28.08266 c -0.10133,0.652 -0.20533,1.14934 -0.316,1.492 -0.11067,0.34267 -0.31067,0.58934 -0.60267,0.74134 -0.292,0.152 -0.76,0.26666 -1.40533,0.34533 -0.372,0.0467 -0.68667,0.17067 -0.94133,0.37467 -0.25467,0.204 -0.41734,0.49333 -0.488,0.868 -0.0587,0.38666 -0.0187,0.708 0.12,0.96266 0.14,0.256 0.32133,0.45867 0.54533,0.608 0.22533,0.14934 0.43733,0.25734 0.636,0.32267 0.2,0.0667 0.33067,0.104 0.39333,0.11067 l 14.148,2.45066 6.944,-40.08533 -14.14666,-2.452 c -0.0613,-0.0133 -0.19734,-0.0227 -0.408,-0.028 -0.20934,-0.004 -0.44534,0.0253 -0.70667,0.0907 -0.26267,0.0653 -0.50133,0.19466 -0.71867,0.38933 -0.216,0.19333 -0.36266,0.48267 -0.43733,0.86533 z m 18.292,4.66 c 1.524,0.52267 2.80533,1.21467 3.84133,2.076 1.03734,0.86134 1.85467,1.89067 2.452,3.08667 0.59867,1.196 1.00267,2.55867 1.212,4.08667 0.0387,0.284 0.0947,0.536 0.16934,0.75466 0.0747,0.22 0.19333,0.4 0.35466,0.54267 0.16134,0.14133 0.39067,0.24 0.69067,0.29333 0.528,0.08 0.92667,0.0547 1.192,-0.076 0.26667,-0.13066 0.44667,-0.292 0.54,-0.48266 0.0933,-0.192 0.144,-0.33867 0.152,-0.44 l 1.88533,-10.87867 -11.95066,-2.07067 z m -6.40667,36.97867 12.32534,2.136 1.85733,-10.71867 c 0.016,-0.06 0.0373,-0.18533 0.0627,-0.37466 0.0267,-0.19067 0.0187,-0.404 -0.0253,-0.64 -0.0427,-0.236 -0.16133,-0.45467 -0.35333,-0.65467 -0.19333,-0.2 -0.5,-0.34133 -0.92267,-0.42133 -0.31866,-0.0493 -0.592,-0.0107 -0.82,0.11733 -0.228,0.128 -0.43066,0.30533 -0.60933,0.53467 -0.17867,0.228 -0.352,0.468 -0.52,0.72133 -0.736,1.35067 -1.636,2.5 -2.69867,3.448 -1.06266,0.94667 -2.25066,1.65733 -3.56266,2.132 -1.312,0.47467 -2.71067,0.67867 -4.19467,0.612 z m 3.268,-18.864 c 0.71067,0.33467 1.27334,0.78667 1.68667,1.35467 0.41467,0.56933 0.71733,1.2 0.90667,1.896 0.19066,0.69466 0.304,1.4 0.34133,2.11466 0.0307,0.324 0.0853,0.62934 0.164,0.91867 0.0773,0.288 0.212,0.53467 0.40267,0.73867 0.192,0.204 0.472,0.34 0.84133,0.40933 0.41067,0.0613 0.73467,0.012 0.972,-0.14933 0.236,-0.16134 0.41067,-0.37467 0.524,-0.64134 0.112,-0.26533 0.188,-0.524 0.22667,-0.77466 0.0387,-0.25067 0.0653,-0.43467 0.0787,-0.552 l 2.00534,-11.576 c 0.0267,-0.11467 0.064,-0.29734 0.112,-0.54667 0.048,-0.24933 0.064,-0.51867 0.0467,-0.80667 -0.016,-0.288 -0.10933,-0.548 -0.27733,-0.77866 -0.16933,-0.232 -0.45733,-0.388 -0.86533,-0.468 -0.37067,-0.0587 -0.68134,-0.0253 -0.92934,0.10266 -0.248,0.128 -0.45866,0.31467 -0.628,0.56 -0.17066,0.24534 -0.32533,0.51467 -0.464,0.80934 -0.276,0.66133 -0.62,1.28666 -1.032,1.87733 -0.41333,0.59067 -0.91066,1.084 -1.492,1.48 -0.58133,0.396 -1.26266,0.632 -2.044,0.70933 l -0.576,3.32267 m 110.40525,67.16667 c -1.36,-0.08 -44.07866,-7.6 -95.03733,-16.72 -50.87866,-9.12134 -93.03866,-17.12134 -93.67866,-17.76134 -0.64,-0.64 -0.32,-2.56 0.8,-4.32 1.12,-1.76 4.48,-3.44 7.44,-3.76 3.04,-0.24 26.96,3.36 53.27866,8.16 26.32,4.8 54.15867,9.68 61.91867,10.96 7.76,1.28 26.07866,4.32 40.71866,6.80134 14.64,2.48 27.12,4 27.68,3.44 0.56,-0.64134 2.4,-8.16134 4.07867,-16.80134 1.68,-8.64 3.44,-18.96 3.92,-22.8 0.48,-3.92 1.68,-7.52 2.56,-8.08 0.96,-0.56 1.68,-2.56 1.68,-4.4 0,-1.76 2.08,-5.28 4.72,-7.68 2.56,-2.4 4.64,-3.6 4.64,-2.64 0,0.88 -1.36,8.88 -2.96,17.68 -1.52,8.72 -4,22.8 -5.36,31.2 -1.44,8.40134 -3.52,17.04134 -4.64,19.20134 -1.2,2.08 -3.76,4.72 -5.67867,5.76 -2,1.12 -4.72,1.84 -6.08,1.76 z M 415.97655,308.62817 c -0.72,-0.16 -3.68,-0.64 -6.56,-1.04 -2.8,-0.48 -5.12,-1.6 -5.12,-2.64 0,-0.96 1.44,-2.32 3.12,-3.04 1.76,-0.64 3.52,-0.24 3.92,0.88 0.4,1.2 1.92,1.68 3.36,1.12 1.68,-0.64 2.72,0.16 2.72,2 0,1.6 -0.64,2.88 -1.44,2.72 z m -18.48,-3.84 c -2,0.24 -4.16,0.08 -4.72,-0.48 -0.48,-0.56 -4.72,-1.44 -9.28,-2 -4.56,-0.56 -22.23866,-3.6 -39.27866,-6.72 -16.96,-3.12 -33.59867,-6 -36.87867,-6.48 -3.2,-0.48 -27.68,-4.72 -54.39866,-9.36 -26.64,-4.72 -51.59867,-9.44 -55.43867,-10.4 -3.92,-1.04 -7.04,-2.8 -7.04,-3.84 0,-1.12 1.28,-1.52 2.88,-0.88 2.32,0.88 2.72,0.24 1.68,-3.04 -1.2,-3.76 -1.12,-3.84 1.76,-1.04 1.68,1.68 3.04,4.08 3.04,5.28 0,1.6 0.72,1.68 2.4,0.24 1.28,-1.04 4.56,-1.68 7.2,-1.44 2.64,0.32 5.76,1.12 6.88,1.84 1.12,0.64 2.56,0.4 3.2,-0.64 0.64,-1.04 2.63867,-1.68 4.55867,-1.36 1.84,0.24 4.8,1.92 6.56,3.68 2.88,2.88 3.6,2.88 7.52,0.32 3.28,-2.08 5.44,-2.32 8.8,-0.88 2.48,1.04 6.4,3.28 8.72,4.96 2.48,1.84 4.16,2.24 4.16,0.96 0,-1.2 -1.28,-2.16 -2.8,-2.16 -1.52,0 -2.8,-0.88 -2.8,-2 0,-1.04 1.44,-1.52 3.28,-0.96 1.84,0.56 10.48,2.32 19.19866,4 8.8,1.6 18.48,3.28 21.6,3.68 3.12,0.4 15.76,2.56 28.15867,4.8 12.32,2.24 25.04,4.48 28.08,5.04 3.12,0.48 6.64,1.76 7.92,2.72 1.28,1.04 2.96,1.36 3.84,0.8 0.96,-0.48 7.83866,-0.08 15.35866,1.04 8.96,1.36 15.04,3.36 17.36,5.68 2,2 3.28,4.64 2.88,5.84 -0.4,1.2 -2.4,2.48 -4.4,2.8 z m -37.19866,-10.88 c 0.48,0 0.8,-0.88 0.8,-1.92 0,-1.04 -0.88,-1.84 -1.92,-1.84 -1.12,0 -1.52,0.8 -0.88,1.84 0.64,1.04 1.52,1.92 2,1.92 z m -115.43733,-20.64 c 0.88,0 2.16,-0.88 2.8,-1.92 0.64,-0.96 -0.64,-1.84 -2.8,-1.84 -2.24,0 -3.44,0.88 -2.8,1.84 0.64,1.04 1.84,1.92 2.8,1.92 z m 384.94932,-9.76 c -3.76,0.56 -4.24,-0.16 -4.24,-6.96 0,-5.36 1.2,-8.64 4.16,-11.36 3.6,-3.36 3.68,-3.84 0.8,-3.84 -2.48,0 -2.96,-0.96 -2.08,-3.68 0.64,-2.08 1.52,-6.08 2,-8.96 0.4,-2.8 1.28,-7.83999 1.76,-11.19999 0.56,-3.36 2.48,-6.88 4.24,-7.92 2.08,-1.2 2.32,-1.92 0.8,-1.92 -1.36,0 -2,-0.88 -1.36,-1.92 0.64,-1.04 2.88,-1.92 4.96,-1.92 3.12,0 3.6,0.96 2.8,5.2 -0.56,2.8 -1.52,8.48 -2.16,12.64 -0.64,4.15999 -1.6,9.03999 -2.16,10.87999 -0.8,2.88 -1.36,3.04 -4,0.96 -2.96,-2.24 -2.96,-2.16 0,1.36 2.72,3.2 2.8,5.2 0.88,15.84 -1.84,10.48 -2.8,12.32 -6.4,12.8 z m -485.66666,-3.44 c -0.87999,0 -2.71999,-0.8 -4.23999,-1.76 -1.52,-0.88 -3.44,-1.2 -4.4,-0.72 -0.88,0.56 -7.2,0 -14.07867,-1.28 -6.96,-1.28 -14.08,-3.12 -15.92,-4.08 -1.92,-0.96 -4.24,-3.84 -5.2,-6.48 -1.36,-3.44 -0.56,-11.36 2.88,-29.19999 3.2,-16.64 5.68,-25.2 7.84,-26.72 2.72,-2.08 2.8,-2.56 0.32,-4 -2.56,-1.52 -2.48,-3.52 0.32,-18.56 1.84,-9.28 6.08,-33.20134 9.44,-53.12134 4.55867,-26.639993 7.19867,-37.599993 9.99867,-41.039993 3.44,-4.4 4.56,-4.72 14.79999,-3.76 7.68,0.72 11.84,2.08 13.68,4.48 2.16,2.8 2.96,2.96 4.32,0.88 1.44,-2.16 8.31867,-1.36 39.91867,4.24 21.03867,3.76 39.67867,7.28 41.51867,7.84 1.76,0.56 3.28,2.64 3.28,4.64 0,1.99999 0.88,3.59999 2,3.59999 1.12,0 1.44,-1.6 0.8,-3.75999 -0.72,-2.08 -0.32,-3.68 0.8,-3.68 1.12,0 2,1.2 2,2.8 0,1.51999 0.88,2.79999 2,2.79999 1.04,0 1.36,-0.96 0.72,-2.07999 -0.96,-1.52 1.52,-1.68 8.8,-0.72 5.51866,0.72 40.39866,6.79999 77.59733,13.439993 37.11866,6.64 70.47866,12.48 74.07866,12.96 3.59867,0.4 10.79867,1.68 15.91867,2.8 5.2,1.04 12.8,2.4 16.88,2.96 4.16,0.56 12.56,2.08 18.79866,3.36 6.56,1.36 11.04,3.2 10.72,4.48 -0.24,1.2 0.32,2.16 1.28,2.16 0.96,0 2.08,-1.04 2.56,-2.32 0.48,-1.28 1.44,-1.76 2.16,-1.12 0.8,0.72 0.4,3.04 -0.72,5.2 -1.2,2.16 -3.92,3.92 -6.32,3.92 -2.32,0 -6.08,-1.36 -8.32,-2.96 -2.32,-1.6 -4.23866,-2.24 -4.23866,-1.52 0,0.8 -0.96,0.48 -2.16,-0.72 -1.52,-1.52 -3.2,-1.6 -5.84,-0.16 -2.16,1.12 -7.76,1.44 -13.76,0.72 -5.52,-0.72 -10.48,-2 -10.96,-2.88 -0.56,-0.8 -2.56,-1.12 -4.56,-0.64 -1.92,0.56 -6.16,-0.4 -9.36,-2.08 -3.27867,-1.68 -9.91867,-3.12 -14.79867,-3.12 -4.88,-0.08 -20.24,-2.08 -34.16,-4.56 -13.91866,-2.4 -37.99866,-6.64 -53.51733,-9.44 -15.44,-2.72 -28.8,-5.36 -29.6,-5.84 -0.8,-0.56 -0.4,-2.32 0.88,-4 1.6,-2.080003 0.88,-1.840003 -1.92,0.56 -4.24,3.6 -4.4,3.6 -10.24,0.16 -3.28,-1.920003 -9.19866,-4.080003 -13.03866,-4.800003 -3.92,-0.8 -7.52,-0.64 -8.08,0.24 -0.56,0.88 -4.16,1.2 -7.92,0.72 -3.84,-0.48 -14.16,-2.24 -22.88,-3.84 -8.79867,-1.6 -18.07867,-3.19999 -20.63867,-3.51999 -2.56,-0.32 -4.72,-0.8 -4.72,-1.04 0,-0.16 -2.48,-0.56 -5.6,-0.8 -3.12,-0.24 -16.48,-2.4 -29.67867,-4.8 -13.68,-2.48 -24.71999,-3.6 -25.59999,-2.72 -0.8,0.96 -3.76,14.23999 -6.48,29.679993 -2.72,15.36 -5.44,28.64 -6,29.52 -0.48,0.88 -2.16,1.6 -3.67867,1.6 -2.16,0 -2.32,0.8 -0.88,3.6 1.11867,2 1.99867,6.24 1.99867,9.36134 0,3.44 -1.67867,7.44 -4.07867,9.84 -3.36,3.28 -3.44,3.84 -0.72,2.8 2.8,-1.12 3.2,-0.56 2.24,3.92 -0.56,2.8 -1.52,8.08 -2.16,11.68 -0.56,3.68 -2.88,17.84 -5.04,31.52 -2.8,17.43999 -3.44,25.43999 -2.08,26.87999 1.12,1.04 5.68,2.4 10.16,2.96 4.55867,0.56 9.59867,2.24 11.27867,3.76 2.16,1.84 3.52,2.08 4.4,0.64 0.64,-1.12 2,-1.52 2.96,-0.96 1.12,0.72 1.04,2.56 -0.16,4.72 -1.52,2.88 -1.36,3.68 0.8,3.68 1.52,0 3.28,0.8 3.91999,1.84 0.64,1.04 0.48,1.92 -0.32,1.84 z M 202.62189,87.586847 c 0.56,0 0.96,-0.48 0.96,-0.96 0,-0.56 -0.4,-0.96 -0.96,-0.96 -0.48,0 -0.96,0.4 -0.96,0.96 0,0.48 0.48,0.96 0.96,0.96 z M 640.44988,201.10818 c -4.24,2.16 -5.44,2.32 -5.44,0.48 0,-1.36 0.72,-5.36 1.68,-8.96 0.96,-3.6 2.08,-10.16 2.64,-14.56 0.88,-7.28 0.48,-8.24 -4.56,-11.2 -3.12,-1.84 -5.04,-4.32 -4.56,-5.76 0.56,-1.36 0.16,-1.92 -0.88,-1.36 -0.96,0.64 -4.72,0.32 -8.24,-0.64 -4.72,-1.28 -7.35867,-1.12 -9.91867,0.64 -1.92,1.36 -5.84,2 -8.64,1.52 -4.32,-0.88 -4.72,-1.36 -2.32,-3.12 1.92,-1.44 2.24,-2.96 1.04,-4.88 -1.44,-2.4 -1.84,-2.32 -2.96,0.47866 -0.64,1.76 -2.72,3.20134 -4.56,3.20134 -1.84,0 -4.4,-1.28134 -5.68,-2.88134 -1.76,-2.08 -1.84,-3.44 -0.4,-4.96 1.44,-1.44 8.88,-0.8 26.08,2.16134 13.27867,2.23866 25.59867,4.55866 27.43867,5.04 1.76,0.56 4.64,3.04 6.32,5.6 2.72,4.08 2.8,6.48 0.72,20.56 -2.16,14.56 -2.8,16.08 -7.76,18.64 z m -99.11733,-53.52134 c -0.96,0 -2.32,-0.88 -2.96,-1.92 -0.64,-0.96 0.16,-1.84 1.76,-1.84 1.6,0 2.96,0.88 2.96,1.84 0,1.04 -0.8,1.92 -1.76,1.92 z m -2.4,-6.16 c -3.36,0 -7.68,-0.32 -9.44,-0.8 -1.84,-0.48 -3.28,-1.6 -3.28,-2.56 0,-1.04 3.36,-1.28 7.92,-0.56 4.4,0.64 8.64,1.76 9.52,2.48 0.8,0.72 -1.36,1.36 -4.72,1.44 z m -26.79867,-2.32 c -2.08,0.32 -5.44,-0.08 -7.52,-0.88 -2.08,-0.8 -4.24,-1.2 -4.8,-0.88 -0.56,0.32 -1.92,-0.88 -3.04,-2.64 -1.76,-2.88 -1.2,-3.12 4.8,-2.48 3.76,0.48 7.76,1.52 8.88,2.48 1.2,0.96 3.52,1.12 5.2,0.48 1.67867,-0.64 3.03867,-0.24 3.03867,0.96 0,1.12 -0.64,2.08 -1.44,2.16 -0.71867,0.08 -3.03867,0.48 -5.11867,0.8 z m -17.6,-0.88 c -0.96,0 -2.24,-1.36 -2.8,-2.96 -0.64,-1.68 -1.2,-3.44 -1.2,-3.92 0,-0.48 1.28,0.32 2.8,1.92 1.6,1.52 2.88,3.28 2.88,3.84 0,0.64 -0.8,1.12 -1.68,1.12" />
    </g>
</svg>
