<?xml version="1.0" encoding="UTF-8" standalone="no"?>
<!-- Created with Inkscape (http://www.inkscape.org/) -->

<svg
     width="304.98291"
     height="550"
     viewBox="0 0 304.98291 550"
     version="1.1"
     id="svg195"
     xmlns="http://www.w3.org/2000/svg"
     xmlns:svg="http://www.w3.org/2000/svg"
     xmlns:rdf="http://www.w3.org/1999/02/22-rdf-syntax-ns#"
     xmlns:cc="http://creativecommons.org/ns#"
     xmlns:dc="http://purl.org/dc/elements/1.1/">
    <defs
         id="defs189" />
    <metadata
         id="metadata192">
        <rdf:RDF>
            <cc:Work
                 rdf:about="">
                <dc:format>image/svg+xml</dc:format>
                <dc:type
                     rdf:resource="http://purl.org/dc/dcmitype/StillImage" />
            </cc:Work>
        </rdf:RDF>
    </metadata>
    <g
         id="layer1"
         transform="translate(-109.66039,-101.38559)">
        <rect
             style="font-variation-settings:normal;opacity:1;vector-effect:none;fill:#ffffff;fill-opacity:1;fill-rule:evenodd;stroke:none;stroke-width:0.990991;stroke-linecap:butt;stroke-linejoin:round;stroke-miterlimit:4;stroke-dasharray:none;stroke-dashoffset:0;stroke-opacity:1;-inkscape-stroke:none;paint-order:markers fill stroke;stop-color:#000000;stop-opacity:1"
             id="rect3"
             width="304.98291"
             height="550"
             x="109.66039"
             y="101.38559"
             ry="1.3877744e-06" />
        <g
             id="g3"
             transform="matrix(0.95454545,0,0,0.95454545,11.91599,17.108436)">
            <path
                 style="display:inline;fill:#ff0000;fill-opacity:1;stroke:none;stroke-width:1px;stroke-linecap:butt;stroke-linejoin:miter;stroke-opacity:1"
                 d="m 165.93128,280.71529 c 0,0 -13.67892,16.35523 -38.65782,13.08419 -24.97891,-3.27105 -39.549932,-11.89472 -44.01045,-29.43942 -4.460519,-17.54471 -0.892104,-35.68415 5.055254,-46.68676 5.947358,-11.00261 30.331526,-23.1947 46.686756,-23.49207 16.35524,-0.29736 35.38678,6.24473 42.52361,18.73418 7.13683,12.48945 10.40788,31.22363 5.64999,42.22624 -4.75788,11.00261 -13.97629,21.41049 -17.24734,25.57364 z"
                 id="path2"
                 transform="translate(108.27409,98.885591)" />
            <path
                 style="fill:#f1f6fb;fill-opacity:1;stroke:none;stroke-width:1px;stroke-linecap:butt;stroke-linejoin:miter;stroke-opacity:1"
                 d="m 123.40768,237.89431 c -5.45138,4.54282 -10.70525,7.4342 -17.54471,6.24473 -6.839462,-1.18947 -4.65477,-12.30565 1.78421,-17.84208 7.13158,-6.13194 17.84207,-8.92103 21.41049,-6.54209 3.56841,2.37895 1.48684,12.19208 -5.64999,18.13944 z"
                 id="path3"
                 transform="translate(108.27409,98.885591)" />
            <path
                 style="display:inline;fill:#000000;stroke-width:0.106798"
                 d="m 360.03711,651.24 c -3.30045,-0.65824 -6.14958,-2.4398 -9.90736,-6.19503 -4.0626,-4.05987 -6.4338,-7.20681 -15.29424,-20.29787 -2.61845,-3.86869 -4.97761,-7.34233 -5.24256,-7.71921 -7.16282,-10.18868 -11.61559,-15.69949 -17.18305,-21.26593 -1.52982,-1.52954 -3.5184,-3.41183 -4.41906,-4.18287 -9.21418,-7.88795 -18.03016,-12.0764 -28.5507,-13.56434 -2.61881,-0.37039 -9.79898,-0.37014 -12.67337,0 -16.08652,2.07397 -31.55342,9.82365 -52.43994,26.27494 -3.34633,2.63575 -7.23257,5.79188 -13.70368,11.12917 -13.00217,10.72403 -18.81653,15.09392 -25.20435,18.94279 -5.27807,3.18022 -9.84625,5.11397 -14.35976,6.07862 -1.67672,0.35835 -2.04058,0.38507 -5.2199,0.38337 -2.67717,-0.002 -3.72602,-0.0579 -4.84151,-0.26031 -2.08711,-0.37879 -3.67213,-0.86483 -5.18955,-1.59134 -3.14483,-1.50565 -5.21565,-3.64903 -6.84998,-7.08996 -1.35426,-2.85125 -2.09764,-5.81333 -2.64151,-10.52536 -0.30331,-2.62785 -0.4222,-11.7907 -0.21131,-16.28504 0.33663,-7.1737 0.99287,-17.07815 1.62846,-24.57802 0.1709,-2.01669 0.29895,-3.66672 0.28454,-3.66672 -0.0144,0 -0.4112,0.733 -0.88175,1.62891 -2.20212,4.19264 -4.24441,6.3438 -6.24743,6.58047 -1.8452,0.21803 -6.72356,-0.55357 -9.63162,-1.52342 -5.09058,-1.69772 -8.6298,-4.47657 -10.41978,-8.18114 -0.89581,-1.85397 -1.08015,-2.66589 -1.16393,-5.12631 -0.20359,-5.97959 1.88021,-10.2275 9.29034,-18.93886 6.8629,-8.068 9.18524,-11.11332 11.64531,-15.27064 3.15181,-5.32627 4.9449,-10.39074 5.8903,-16.63671 0.36743,-2.42753 0.36421,-11.25192 -0.005,-14.37121 -0.6706,-5.66181 -1.46739,-9.04755 -3.94573,-16.76636 -2.63211,-8.19775 -3.37868,-11.33508 -4.07523,-17.12548 -0.36864,-3.06444 -0.3691,-13.24999 -7.5e-4,-15.87669 0.80311,-5.72645 2.53502,-10.30952 6.09829,-16.13746 1.70084,-2.78186 3.49439,-5.31577 8.7359,-12.34204 6.52891,-8.752 9.22458,-12.64582 12.27336,-17.72848 8.05432,-13.42741 13.79611,-28.57302 17.19381,-45.35359 1.08323,-5.34992 3.49771,-30.99591 5.06083,-53.75504 1.34371,-19.56452 2.1628,-36.66531 2.86459,-59.80693 0.23666,-7.8039 0.33145,-35.97806 0.14564,-43.28884 -0.60677,-23.874 -2.26046,-39.06476 -4.98145,-45.75941 l -0.30964,-0.76182 0.96472,0.53642 c 1.62321,0.90254 5.39272,3.28343 7.92592,5.00614 18.55799,12.62036 41.77219,33.28259 64.67925,57.56896 29.65341,31.43896 57.59915,67.9339 79.79015,104.19966 1.47321,2.40758 2.86289,4.62944 3.0882,4.93747 0.69547,0.95081 2.69665,2.44844 4.39172,3.28665 5.12642,2.53498 11.25193,2.17851 17.44873,-1.01541 7.30651,-3.7659 12.78584,-10.87544 14.369,-18.64407 0.80119,-3.9315 0.90907,-14.6422 0.22295,-22.13614 -1.34312,-14.6701 -5.19866,-24.20824 -11.01383,-27.24691 -1.26629,-0.66169 -2.14792,-0.90335 -4.23345,-1.16042 -3.50363,-0.43187 -6.10216,-1.21626 -9.433,-2.84741 -2.59453,-1.27059 -3.58798,-1.83814 -8.03498,-4.59027 -4.48032,-2.77277 -6.92218,-4.18036 -8.72002,-5.0266 -4.38683,-2.06489 -8.48988,-3.00957 -12.08465,-2.78234 -2.93343,0.18543 -4.25413,0.45999 -12.61991,2.62367 -3.95614,1.02319 -5.11938,1.20911 -7.61826,1.21761 -2.45355,0.008 -3.36405,-0.17459 -5.03367,-1.01144 -2.95209,-1.47965 -5.46827,-5.3 -6.68214,-10.14558 -0.33103,-1.32142 -0.37599,-1.78007 -0.37077,-3.78214 0.005,-1.87316 0.0601,-2.47547 0.31017,-3.38675 1.527,-5.56327 6.43733,-10.08407 14.84871,-13.67078 4.43547,-1.89135 10.70876,-3.69546 16.72096,-4.80872 1.40974,-0.26104 2.58687,-0.49115 2.61585,-0.51135 0.0289,-0.0202 -0.84668,-0.98488 -1.94592,-2.14373 -12.12363,-12.78108 -20.96348,-27.40261 -28.63549,-47.36448 -3.41214,-8.87805 -5.15768,-14.77207 -5.77652,-19.50505 -0.28413,-2.17306 -0.28787,-6.0793 -0.007,-7.68785 0.98827,-5.66718 4.26906,-9.70899 10.18435,-12.54672 5.14358,-2.46752 8.63422,-2.65095 12.06963,-0.63426 1.11902,0.65689 3.20756,2.77955 4.25297,4.32242 1.90015,2.80432 3.28126,5.48407 6.56843,12.74457 5.41706,11.96487 8.67513,17.39492 13.64791,22.74629 1.28776,1.38577 4.4496,4.23452 4.56826,4.11587 0.0307,-0.0307 -0.48721,-2.13034 -1.15086,-4.66592 -4.44618,-16.98726 -6.00328,-24.72528 -6.64423,-33.01845 -0.29439,-3.80919 -0.11808,-15.28042 0.29656,-19.29485 0.50848,-4.92278 1.60397,-7.73892 3.78954,-9.7416 2.76982,-2.53804 7.58603,-3.37543 14.3919,-2.50232 3.52614,0.45235 5.76532,1.5188 7.9596,3.79089 3.76137,3.89475 5.7713,9.7571 8.17091,23.83195 1.94597,11.41407 2.9642,16.07024 4.56204,20.86124 1.06427,3.19109 2.63476,6.54828 4.11968,8.80647 0.88689,1.34871 2.27121,3.07292 2.37991,2.96423 0.10412,-0.10412 1.0456,-3.57789 2.55338,-9.42114 3.47858,-13.4809 5.06115,-18.29647 7.83852,-23.85158 3.19714,-6.3947 6.49044,-10.00093 11.43539,-12.52203 1.92377,-0.98079 4.3394,-1.8316 6.55644,-2.30926 1.27575,-0.27485 1.91313,-0.32168 4.34313,-0.31911 3.32763,0.004 4.23247,0.18298 6.46535,1.28229 2.22438,1.09513 3.97077,3.07288 4.78772,5.42201 1.74422,5.01555 0.5373,12.29529 -3.52508,21.26187 -3.9135,8.63795 -5.16552,12.17067 -6.22296,17.55871 -0.81388,4.14702 -0.92614,5.43204 -0.92916,10.63599 -0.004,7.28907 0.48005,10.54364 3.39004,22.78359 2.73551,11.5061 3.29021,15.14923 3.28475,21.57321 -0.004,4.42923 -0.13918,5.7971 -0.98783,9.97885 -1.27515,6.28342 -3.40375,11.4755 -6.31345,15.39981 -2.07224,2.79483 -3.89699,4.53357 -8.61687,8.21075 -5.10376,3.97625 -6.921,5.75734 -8.94089,8.7631 -2.79804,4.16368 -4.13469,8.50643 -4.84635,15.74567 -0.21928,2.23069 -0.2456,13.82815 -0.0606,26.69951 0.12979,9.02882 0.0392,12.82697 -0.41438,17.37249 -0.58023,5.81482 -1.58442,10.33207 -3.14966,14.16856 -0.86085,2.10995 -1.51489,3.29829 -3.25251,5.90948 -3.18978,4.79346 -5.18706,8.85893 -7.03069,14.31094 -2.47756,7.32669 -3.65698,14.31716 -3.81996,22.64121 -0.13617,6.95355 0.42258,12.62615 1.8865,19.15246 0.82026,3.65681 1.36903,5.27741 3.37531,9.96782 24.83854,58.0693 37.25486,118.34437 36.12899,175.38831 -0.30659,15.53361 -1.2804,26.37265 -3.29199,36.64151 -2.87117,14.65692 -7.90414,24.85365 -15.00955,30.40914 -3.7795,2.95507 -8.33147,4.85961 -13.92018,5.82419 -3.60861,0.62283 -9.8052,0.93707 -11.56341,0.58641 z m 11.66171,-15.53263 c 3.60976,-0.54189 6.0353,-2.26808 8.12398,-5.78167 4.54411,-7.64411 7.07192,-25.11058 8.18949,-56.5871 0.71703,-20.19513 0.51962,-30.369 -0.85373,-44.00082 -4.21601,-41.84736 -19.67228,-93.13237 -43.92428,-145.7438 -10.23074,-22.19424 -22.12819,-44.51053 -32.79574,-61.5157 l -1.83121,-2.91914 -1.19824,0.032 c -1.57283,0.0419 -4.70763,0.4003 -7.65574,0.87511 -2.15143,0.3465 -2.36965,0.40794 -2.3552,0.66299 0.009,0.1546 0.2816,1.14616 0.60633,2.20345 2.38842,7.777 2.7467,16.93539 1.0055,25.70275 -2.96845,14.94688 -12.04488,28.14842 -25.55053,37.16289 -3.02027,2.0159 -4.84786,3.06163 -8.114,4.64273 -14.8646,7.19581 -31.88159,8.62859 -46.34368,3.90205 -10.04408,-3.28264 -18.40832,-9.23497 -24.5269,-17.45431 l -1.44037,-1.93491 -2.42875,1.65586 -2.42876,1.65584 -0.2546,1.20464 c -0.14004,0.66255 -1.88554,8.86206 -3.87891,18.22113 -1.99337,9.35908 -4.17659,19.64374 -4.8516,22.85479 -16.9642,80.69859 -25.93323,134.54259 -28.2028,169.31059 -0.30913,4.73582 -0.43284,15.79323 -0.21428,19.15355 0.6015,9.24772 2.23013,14.26283 5.15714,15.88069 0.71544,0.39544 0.87376,0.42386 2.61276,0.46901 1.47467,0.0382 2.154,-0.014 3.34016,-0.25701 4.89628,-1.0031 10.9081,-4.57202 18.80264,-11.16222 2.73708,-2.28485 6.00612,-5.18034 12.88697,-11.41436 11.19062,-10.13864 16.63694,-14.76434 23.06839,-19.59247 16.18241,-12.14829 30.94144,-18.75715 46.20798,-20.69121 4.59264,-0.58183 11.33319,-0.65328 15.52132,-0.16454 18.14777,2.1178 34.23738,11.79129 49.83457,29.96184 5.34676,6.22894 9.82319,12.28717 18.11507,24.51625 4.7531,7.01 6.14086,8.99836 7.9811,11.43536 3.6738,4.86509 6.34156,7.29534 8.72455,7.94782 0.62734,0.17177 7.14279,-0.003 8.67137,-0.23205 z M 149.35527,491.60161 c 2.27859,-13.3989 5.36694,-30.06773 7.76961,-41.9352 0.89246,-4.40812 1.12048,-6.52878 0.91579,-8.51728 -0.24122,-2.34344 -1.00368,-3.58651 -2.19984,-3.58651 -2.03595,0 -5.82044,4.04952 -9.10574,9.74342 -4.68786,8.12474 -7.26416,16.79242 -6.77868,22.80607 0.40665,5.03718 1.40779,8.55179 5.1278,18.00161 1.15615,2.93695 2.37614,6.09429 2.71109,7.01629 0.33496,0.92201 0.62686,1.65854 0.64867,1.63673 0.0218,-0.0218 0.43191,-2.34612 0.9113,-5.16513 z m 93.34632,-105.65545 c 12.431,-1.4657 24.08612,-7.04054 32.75312,-15.66634 7.70101,-7.66439 12.26806,-16.91149 13.54079,-27.41656 0.28507,-2.35295 0.32363,-7.51515 0.0733,-9.82038 -0.96467,-8.88525 -4.6281,-16.18999 -10.7679,-21.4707 -3.83578,-3.29908 -8.84022,-5.96792 -14.20802,-7.57705 -7.72133,-2.31464 -16.22802,-2.7145 -24.09505,-1.13256 -10.34366,2.07994 -20.95338,7.14383 -29.76291,14.20545 -2.2553,1.80783 -6.52045,6.09232 -8.10623,8.143 -3.63252,4.69747 -5.69575,8.92167 -6.73607,13.79123 -0.36322,1.70015 -0.38509,2.01718 -0.38953,5.64602 -0.005,4.06868 0.11453,5.49907 0.72572,8.68625 2.69108,14.03318 11.592,24.98066 24.34187,29.93873 4.05743,1.57783 8.7069,2.56251 13.87341,2.93815 1.5446,0.11231 6.94177,-0.0511 8.75744,-0.26524 z"
                 id="path1" />
        </g>
    </g>
</svg>
